<?xml version="1.0" encoding="UTF-8" standalone="no"?>
<!DOCTYPE svg PUBLIC "-//W3C//DTD SVG 1.1//EN"
 "http://www.w3.org/Graphics/SVG/1.1/DTD/svg11.dtd">
<!-- Generated by graphviz version 2.47.0 (20210316.0004)
 -->
<!-- Title: dependencies Pages: 1 -->
<svg width="4129pt" height="366pt"
 viewBox="0.00 0.00 4129.00 366.00" xmlns="http://www.w3.org/2000/svg" xmlns:xlink="http://www.w3.org/1999/xlink">
<g id="graph0" class="graph" transform="scale(1 1) rotate(0) translate(4 362)">
<title>dependencies</title>
<polygon fill="white" stroke="transparent" points="-4,4 -4,-362 4125,-362 4125,4 -4,4"/>
<text text-anchor="start" x="2039.51" y="-42.4" font-family="Times-12" font-weight="bold" font-size="14.00">Legend</text>
<polygon fill="#ffffb3" stroke="transparent" points="1826.5,-10 1826.5,-30 1846.5,-30 1846.5,-10 1826.5,-10"/>
<text text-anchor="start" x="1850.13" y="-15.4" font-family="Times-12" font-size="14.00"> &#160;Declarations</text>
<polygon fill="#8dd3c7" stroke="transparent" points="1939.5,-10 1939.5,-30 1959.5,-30 1959.5,-10 1939.5,-10"/>
<text text-anchor="start" x="1963.23" y="-15.4" font-family="Times-12" font-size="14.00"> &#160;Module</text>
<polygon fill="#80b1d3" stroke="transparent" points="2025.5,-10 2025.5,-30 2045.5,-30 2045.5,-10 2025.5,-10"/>
<text text-anchor="start" x="2049.28" y="-15.4" font-family="Times-12" font-size="14.00"> &#160;Bootstrap</text>
<polygon fill="#fdb462" stroke="transparent" points="2122.5,-10 2122.5,-30 2142.5,-30 2142.5,-10 2122.5,-10"/>
<text text-anchor="start" x="2146.17" y="-15.4" font-family="Times-12" font-size="14.00"> &#160;Providers</text>
<polygon fill="#fb8072" stroke="transparent" points="2218.5,-10 2218.5,-30 2238.5,-30 2238.5,-10 2218.5,-10"/>
<text text-anchor="start" x="2242.23" y="-15.4" font-family="Times-12" font-size="14.00"> &#160;Exports</text>
<g id="clust1" class="cluster">
<title>cluster_AiModule</title>
<polygon fill="none" stroke="black" stroke-dasharray="1,5" points="3981,-138 3981,-350 4113,-350 4113,-138 3981,-138"/>
</g>
<g id="clust4" class="cluster">
<title>cluster_AiModule_exports</title>
<polygon fill="none" stroke="black" points="3995,-290 3995,-342 4087,-342 4087,-290 3995,-290"/>
</g>
<g id="clust6" class="cluster">
<title>cluster_AiModule_providers</title>
<polygon fill="none" stroke="black" points="3989,-146 3989,-198 4105,-198 4105,-146 3989,-146"/>
</g>
<g id="clust7" class="cluster">
<title>cluster_AppModule</title>
<polygon fill="none" stroke="black" stroke-dasharray="1,5" points="3111,-138 3111,-342 3803,-342 3803,-138 3111,-138"/>
</g>
<g id="clust9" class="cluster">
<title>cluster_AppModule_imports</title>
<polygon fill="none" stroke="black" points="3119,-146 3119,-266 3723,-266 3723,-146 3119,-146"/>
</g>
<g id="clust13" class="cluster">
<title>cluster_AuthModule</title>
<polygon fill="none" stroke="black" stroke-dasharray="1,5" points="8,-282 8,-350 836,-350 836,-282 8,-282"/>
</g>
<g id="clust16" class="cluster">
<title>cluster_AuthModule_exports</title>
<polygon fill="none" stroke="black" points="444,-290 444,-342 828,-342 828,-290 444,-290"/>
</g>
<g id="clust18" class="cluster">
<title>cluster_AuthModule_providers</title>
<polygon fill="none" stroke="black" points="16,-290 16,-342 436,-342 436,-290 16,-290"/>
</g>
<g id="clust19" class="cluster">
<title>cluster_BillingModule</title>
<polygon fill="none" stroke="black" stroke-dasharray="1,5" points="479,-206 479,-274 769,-274 769,-206 479,-206"/>
</g>
<g id="clust22" class="cluster">
<title>cluster_BillingModule_exports</title>
<polygon fill="none" stroke="black" points="645,-214 645,-266 761,-266 761,-214 645,-214"/>
</g>
<g id="clust24" class="cluster">
<title>cluster_BillingModule_providers</title>
<polygon fill="none" stroke="black" points="487,-214 487,-266 637,-266 637,-214 487,-214"/>
</g>
<g id="clust25" class="cluster">
<title>cluster_BlocksModule</title>
<polygon fill="none" stroke="black" stroke-dasharray="1,5" points="844,-282 844,-350 1134,-350 1134,-282 844,-282"/>
</g>
<g id="clust28" class="cluster">
<title>cluster_BlocksModule_exports</title>
<polygon fill="none" stroke="black" points="1010,-290 1010,-342 1126,-342 1126,-290 1010,-290"/>
</g>
<g id="clust30" class="cluster">
<title>cluster_BlocksModule_providers</title>
<polygon fill="none" stroke="black" points="852,-290 852,-342 1002,-342 1002,-290 852,-290"/>
</g>
<g id="clust31" class="cluster">
<title>cluster_DashboardModule</title>
<polygon fill="none" stroke="black" stroke-dasharray="1,5" points="777,-206 777,-274 1119,-274 1119,-206 777,-206"/>
</g>
<g id="clust34" class="cluster">
<title>cluster_DashboardModule_exports</title>
<polygon fill="none" stroke="black" points="973,-214 973,-266 1111,-266 1111,-214 973,-214"/>
</g>
<g id="clust36" class="cluster">
<title>cluster_DashboardModule_providers</title>
<polygon fill="none" stroke="black" points="785,-214 785,-266 965,-266 965,-214 785,-214"/>
</g>
<g id="clust37" class="cluster">
<title>cluster_DatabaseModule</title>
<polygon fill="none" stroke="black" stroke-dasharray="1,5" points="1127,-206 1127,-274 2725,-274 2725,-206 1127,-206"/>
</g>
<g id="clust40" class="cluster">
<title>cluster_DatabaseModule_exports</title>
<polygon fill="none" stroke="black" points="1861,-214 1861,-266 2717,-266 2717,-214 1861,-214"/>
</g>
<g id="clust42" class="cluster">
<title>cluster_DatabaseModule_providers</title>
<polygon fill="none" stroke="black" points="1135,-214 1135,-266 1853,-266 1853,-214 1135,-214"/>
</g>
<g id="clust43" class="cluster">
<title>cluster_ExecutionsModule</title>
<polygon fill="none" stroke="black" stroke-dasharray="1,5" points="1142,-282 1142,-350 2202,-350 2202,-282 1142,-282"/>
</g>
<g id="clust46" class="cluster">
<title>cluster_ExecutionsModule_exports</title>
<polygon fill="none" stroke="black" points="1744,-290 1744,-342 2194,-342 2194,-290 1744,-290"/>
</g>
<g id="clust48" class="cluster">
<title>cluster_ExecutionsModule_providers</title>
<polygon fill="none" stroke="black" points="1150,-290 1150,-342 1736,-342 1736,-290 1150,-290"/>
</g>
<g id="clust49" class="cluster">
<title>cluster_NotificationsModule</title>
<polygon fill="none" stroke="black" stroke-dasharray="1,5" points="2733,-206 2733,-274 3103,-274 3103,-206 2733,-206"/>
</g>
<g id="clust52" class="cluster">
<title>cluster_NotificationsModule_exports</title>
<polygon fill="none" stroke="black" points="2945,-214 2945,-266 3095,-266 3095,-214 2945,-214"/>
</g>
<g id="clust54" class="cluster">
<title>cluster_NotificationsModule_providers</title>
<polygon fill="none" stroke="black" points="2741,-214 2741,-266 2937,-266 2937,-214 2741,-214"/>
</g>
<g id="clust55" class="cluster">
<title>cluster_QueueModule</title>
<polygon fill="none" stroke="black" stroke-dasharray="1,5" points="3811,-70 3811,-274 3973,-274 3973,-70 3811,-70"/>
</g>
<g id="clust58" class="cluster">
<title>cluster_QueueModule_exports</title>
<polygon fill="none" stroke="black" points="3827,-214 3827,-266 3941,-266 3941,-214 3827,-214"/>
</g>
<g id="clust60" class="cluster">
<title>cluster_QueueModule_providers</title>
<polygon fill="none" stroke="black" points="3819,-78 3819,-130 3965,-130 3965,-78 3819,-78"/>
</g>
<g id="clust61" class="cluster">
<title>cluster_UserModule</title>
<polygon fill="none" stroke="black" stroke-dasharray="1,5" points="2210,-282 2210,-350 2749,-350 2749,-282 2210,-282"/>
</g>
<g id="clust64" class="cluster">
<title>cluster_UserModule_exports</title>
<polygon fill="none" stroke="black" points="2515,-290 2515,-342 2741,-342 2741,-290 2515,-290"/>
</g>
<g id="clust66" class="cluster">
<title>cluster_UserModule_providers</title>
<polygon fill="none" stroke="black" points="2218,-290 2218,-342 2507,-342 2507,-290 2218,-290"/>
</g>
<g id="clust67" class="cluster">
<title>cluster_WorkflowsModule</title>
<polygon fill="none" stroke="black" stroke-dasharray="1,5" points="2757,-282 2757,-350 3103,-350 3103,-282 2757,-282"/>
</g>
<g id="clust70" class="cluster">
<title>cluster_WorkflowsModule_exports</title>
<polygon fill="none" stroke="black" points="2955,-290 2955,-342 3095,-342 3095,-290 2955,-290"/>
</g>
<g id="clust72" class="cluster">
<title>cluster_WorkflowsModule_providers</title>
<polygon fill="none" stroke="black" points="2765,-290 2765,-342 2947,-342 2947,-290 2765,-290"/>
</g>
<!-- AiService  -->
<g id="node1" class="node">
<title>AiService </title>
<polygon fill="#fb8072" stroke="black" points="4078.98,-334 4003.02,-334 4003.02,-298 4078.98,-298 4078.98,-334"/>
<text text-anchor="middle" x="4041" y="-311.8" font-family="Times,serif" font-size="14.00">AiService </text>
</g>
<!-- AiModule -->
<g id="node2" class="node">
<title>AiModule</title>
<polygon fill="#8dd3c7" stroke="black" points="4077.55,-258 4074.55,-262 4053.55,-262 4050.55,-258 4004.45,-258 4004.45,-222 4077.55,-222 4077.55,-258"/>
<text text-anchor="middle" x="4041" y="-235.8" font-family="Times,serif" font-size="14.00">AiModule</text>
</g>
<!-- AiModule&#45;&gt;AiService  -->
<g id="edge1" class="edge">
<title>AiModule&#45;&gt;AiService </title>
<path fill="none" stroke="black" stroke-dasharray="5,2" d="M4041,-258.01C4041,-258.01 4041,-287.85 4041,-287.85"/>
<polygon fill="black" stroke="black" points="4037.5,-287.85 4041,-297.85 4044.5,-287.85 4037.5,-287.85"/>
</g>
<!-- AppModule -->
<g id="node13" class="node">
<title>AppModule</title>
<polygon fill="#8dd3c7" stroke="black" points="3735.66,-334 3732.66,-338 3711.66,-338 3708.66,-334 3652.34,-334 3652.34,-298 3735.66,-298 3735.66,-334"/>
<text text-anchor="middle" x="3694" y="-311.8" font-family="Times,serif" font-size="14.00">AppModule</text>
</g>
<!-- AiModule&#45;&gt;AppModule -->
<g id="edge3" class="edge">
<title>AiModule&#45;&gt;AppModule</title>
<path fill="none" stroke="black" d="M4004.3,-240C3990.13,-240 3977.27,-240 3977.27,-240 3977.27,-240 3977.27,-316 3977.27,-316 3977.27,-316 3745.8,-316 3745.8,-316"/>
<polygon fill="black" stroke="black" points="3745.8,-312.5 3735.8,-316 3745.8,-319.5 3745.8,-312.5"/>
</g>
<!-- AiService -->
<g id="node3" class="node">
<title>AiService</title>
<ellipse fill="#fdb462" stroke="black" cx="4047" cy="-172" rx="49.79" ry="18"/>
<text text-anchor="middle" x="4047" y="-167.8" font-family="Times,serif" font-size="14.00">AiService</text>
</g>
<!-- AiService&#45;&gt;AiModule -->
<g id="edge2" class="edge">
<title>AiService&#45;&gt;AiModule</title>
<path fill="none" stroke="black" d="M4041,-190.22C4041,-190.22 4041,-211.73 4041,-211.73"/>
<polygon fill="black" stroke="black" points="4037.5,-211.73 4041,-221.73 4044.5,-211.73 4037.5,-211.73"/>
</g>
<!-- AuthModule -->
<g id="node4" class="node">
<title>AuthModule</title>
<polygon fill="#8dd3c7" stroke="black" points="3214.55,-258 3211.55,-262 3190.55,-262 3187.55,-258 3127.45,-258 3127.45,-222 3214.55,-222 3214.55,-258"/>
<text text-anchor="middle" x="3171" y="-235.8" font-family="Times,serif" font-size="14.00">AuthModule</text>
</g>
<!-- AuthModule&#45;&gt;AppModule -->
<g id="edge4" class="edge">
<title>AuthModule&#45;&gt;AppModule</title>
<path fill="none" stroke="black" d="M3202.27,-258.03C3202.27,-283.51 3202.27,-327 3202.27,-327 3202.27,-327 3642.08,-327 3642.08,-327"/>
<polygon fill="black" stroke="black" points="3642.08,-330.5 3652.08,-327 3642.08,-323.5 3642.08,-330.5"/>
</g>
<!-- AuthService  -->
<g id="node14" class="node">
<title>AuthService </title>
<polygon fill="#fb8072" stroke="black" points="819.98,-334 730.02,-334 730.02,-298 819.98,-298 819.98,-334"/>
<text text-anchor="middle" x="775" y="-311.8" font-family="Times,serif" font-size="14.00">AuthService </text>
</g>
<!-- AuthModule&#45;&gt;AuthService  -->
<g id="edge14" class="edge">
<title>AuthModule&#45;&gt;AuthService </title>
<path fill="none" stroke="black" stroke-dasharray="5,2" d="M3189.76,-258.2C3189.76,-264.03 3189.76,-269 3189.76,-269 3189.76,-269 806.46,-269 806.46,-269 806.46,-269 806.46,-287.96 806.46,-287.96"/>
<polygon fill="black" stroke="black" points="802.96,-287.96 806.46,-297.96 809.96,-287.96 802.96,-287.96"/>
</g>
<!-- DatabaseAuthService  -->
<g id="node15" class="node">
<title>DatabaseAuthService </title>
<polygon fill="#fb8072" stroke="black" points="712.28,-334 571.72,-334 571.72,-298 712.28,-298 712.28,-334"/>
<text text-anchor="middle" x="642" y="-311.8" font-family="Times,serif" font-size="14.00">DatabaseAuthService </text>
</g>
<!-- AuthModule&#45;&gt;DatabaseAuthService  -->
<g id="edge15" class="edge">
<title>AuthModule&#45;&gt;DatabaseAuthService </title>
<path fill="none" stroke="black" stroke-dasharray="5,2" d="M3177.25,-258.16C3177.25,-263.04 3177.25,-267 3177.25,-267 3177.25,-267 682.6,-267 682.6,-267 682.6,-267 682.6,-287.75 682.6,-287.75"/>
<polygon fill="black" stroke="black" points="679.1,-287.75 682.6,-297.75 686.1,-287.75 679.1,-287.75"/>
</g>
<!-- JwtAuthGuard  -->
<g id="node16" class="node">
<title>JwtAuthGuard </title>
<polygon fill="#fb8072" stroke="black" points="553.92,-334 452.08,-334 452.08,-298 553.92,-298 553.92,-334"/>
<text text-anchor="middle" x="503" y="-311.8" font-family="Times,serif" font-size="14.00">JwtAuthGuard </text>
</g>
<!-- AuthModule&#45;&gt;JwtAuthGuard  -->
<g id="edge16" class="edge">
<title>AuthModule&#45;&gt;JwtAuthGuard </title>
<path fill="none" stroke="black" stroke-dasharray="5,2" d="M3164.75,-258.17C3164.75,-262.05 3164.75,-265 3164.75,-265 3164.75,-265 524.57,-265 524.57,-265 524.57,-265 524.57,-287.88 524.57,-287.88"/>
<polygon fill="black" stroke="black" points="521.07,-287.88 524.57,-297.88 528.07,-287.88 521.07,-287.88"/>
</g>
<!-- BillingModule -->
<g id="node5" class="node">
<title>BillingModule</title>
<polygon fill="#8dd3c7" stroke="black" points="3225.45,-190 3222.45,-194 3201.45,-194 3198.45,-190 3126.55,-190 3126.55,-154 3225.45,-154 3225.45,-190"/>
<text text-anchor="middle" x="3176" y="-167.8" font-family="Times,serif" font-size="14.00">BillingModule</text>
</g>
<!-- BillingModule&#45;&gt;AppModule -->
<g id="edge5" class="edge">
<title>BillingModule&#45;&gt;AppModule</title>
<path fill="none" stroke="black" d="M3220,-190.03C3220,-230.3 3220,-324 3220,-324 3220,-324 3641.94,-324 3641.94,-324"/>
<polygon fill="black" stroke="black" points="3641.94,-327.5 3651.94,-324 3641.94,-320.5 3641.94,-327.5"/>
</g>
<!-- BillingService  -->
<g id="node20" class="node">
<title>BillingService </title>
<polygon fill="#fb8072" stroke="black" points="753.38,-258 652.62,-258 652.62,-222 753.38,-222 753.38,-258"/>
<text text-anchor="middle" x="703" y="-235.8" font-family="Times,serif" font-size="14.00">BillingService </text>
</g>
<!-- BillingModule&#45;&gt;BillingService  -->
<g id="edge20" class="edge">
<title>BillingModule&#45;&gt;BillingService </title>
<path fill="none" stroke="black" stroke-dasharray="5,2" d="M3126.6,-178C2778.06,-178 703,-178 703,-178 703,-178 703,-211.73 703,-211.73"/>
<polygon fill="black" stroke="black" points="699.5,-211.73 703,-221.73 706.5,-211.73 699.5,-211.73"/>
</g>
<!-- BlocksModule -->
<g id="node6" class="node">
<title>BlocksModule</title>
<polygon fill="#8dd3c7" stroke="black" points="3331.44,-258 3328.44,-262 3307.44,-262 3304.44,-258 3232.56,-258 3232.56,-222 3331.44,-222 3331.44,-258"/>
<text text-anchor="middle" x="3282" y="-235.8" font-family="Times,serif" font-size="14.00">BlocksModule</text>
</g>
<!-- BlocksModule&#45;&gt;AppModule -->
<g id="edge6" class="edge">
<title>BlocksModule&#45;&gt;AppModule</title>
<path fill="none" stroke="black" d="M3306.61,-258.15C3306.61,-281.76 3306.61,-320 3306.61,-320 3306.61,-320 3642.17,-320 3642.17,-320"/>
<polygon fill="black" stroke="black" points="3642.17,-323.5 3652.17,-320 3642.17,-316.5 3642.17,-323.5"/>
</g>
<!-- BlocksService  -->
<g id="node22" class="node">
<title>BlocksService </title>
<polygon fill="#fb8072" stroke="black" points="1118.36,-334 1017.64,-334 1017.64,-298 1118.36,-298 1118.36,-334"/>
<text text-anchor="middle" x="1068" y="-311.8" font-family="Times,serif" font-size="14.00">BlocksService </text>
</g>
<!-- BlocksModule&#45;&gt;BlocksService  -->
<g id="edge23" class="edge">
<title>BlocksModule&#45;&gt;BlocksService </title>
<path fill="none" stroke="black" stroke-dasharray="5,2" d="M3282,-258.04C3282,-265.75 3282,-273 3282,-273 3282,-273 1110.62,-273 1110.62,-273 1110.62,-273 1110.62,-287.51 1110.62,-287.51"/>
<polygon fill="black" stroke="black" points="1107.12,-287.51 1110.62,-297.51 1114.12,-287.51 1107.12,-287.51"/>
</g>
<!-- DashboardModule -->
<g id="node7" class="node">
<title>DashboardModule</title>
<polygon fill="#8dd3c7" stroke="black" points="3363.19,-190 3360.19,-194 3339.19,-194 3336.19,-190 3242.81,-190 3242.81,-154 3363.19,-154 3363.19,-190"/>
<text text-anchor="middle" x="3303" y="-167.8" font-family="Times,serif" font-size="14.00">DashboardModule</text>
</g>
<!-- DashboardModule&#45;&gt;AppModule -->
<g id="edge7" class="edge">
<title>DashboardModule&#45;&gt;AppModule</title>
<path fill="none" stroke="black" d="M3340.17,-190.24C3340.17,-228.99 3340.17,-316 3340.17,-316 3340.17,-316 3642.02,-316 3642.02,-316"/>
<polygon fill="black" stroke="black" points="3642.02,-319.5 3652.02,-316 3642.02,-312.5 3642.02,-319.5"/>
</g>
<!-- DashboardService  -->
<g id="node24" class="node">
<title>DashboardService </title>
<polygon fill="#fb8072" stroke="black" points="1103.12,-258 980.88,-258 980.88,-222 1103.12,-222 1103.12,-258"/>
<text text-anchor="middle" x="1042" y="-235.8" font-family="Times,serif" font-size="14.00">DashboardService </text>
</g>
<!-- DashboardModule&#45;&gt;DashboardService  -->
<g id="edge25" class="edge">
<title>DashboardModule&#45;&gt;DashboardService </title>
<path fill="none" stroke="black" stroke-dasharray="5,2" d="M3272.34,-190.17C3272.34,-192.45 3272.34,-194 3272.34,-194 3272.34,-194 1042,-194 1042,-194 1042,-194 1042,-211.82 1042,-211.82"/>
<polygon fill="black" stroke="black" points="1038.5,-211.82 1042,-221.82 1045.5,-211.82 1038.5,-211.82"/>
</g>
<!-- DatabaseModule -->
<g id="node8" class="node">
<title>DatabaseModule</title>
<polygon fill="#8dd3c7" stroke="black" points="3492.35,-190 3489.35,-194 3468.35,-194 3465.35,-190 3381.65,-190 3381.65,-154 3492.35,-154 3492.35,-190"/>
<text text-anchor="middle" x="3437" y="-167.8" font-family="Times,serif" font-size="14.00">DatabaseModule</text>
</g>
<!-- DatabaseModule&#45;&gt;AuthModule -->
<g id="edge13" class="edge">
<title>DatabaseModule&#45;&gt;AuthModule</title>
<path fill="none" stroke="black" d="M3451.74,-190.04C3451.74,-202.56 3451.74,-217 3451.74,-217 3451.74,-217 3185.59,-217 3185.59,-217 3185.59,-217 3185.59,-217.49 3185.59,-217.49"/>
<polygon fill="black" stroke="black" points="3182.09,-211.88 3185.59,-221.88 3189.09,-211.88 3182.09,-211.88"/>
</g>
<!-- DatabaseModule&#45;&gt;BlocksModule -->
<g id="edge22" class="edge">
<title>DatabaseModule&#45;&gt;BlocksModule</title>
<path fill="none" stroke="black" d="M3458.12,-190.25C3458.12,-204.18 3458.12,-221 3458.12,-221 3458.12,-221 3301.78,-221 3301.78,-221 3301.78,-221 3301.78,-221.08 3301.78,-221.08"/>
<polygon fill="black" stroke="black" points="3298.28,-211.82 3301.78,-221.82 3305.28,-211.82 3298.28,-211.82"/>
</g>
<!-- ExecutionsModule -->
<g id="node9" class="node">
<title>ExecutionsModule</title>
<polygon fill="#8dd3c7" stroke="black" points="3470.76,-258 3467.76,-262 3446.76,-262 3443.76,-258 3349.24,-258 3349.24,-222 3470.76,-222 3470.76,-258"/>
<text text-anchor="middle" x="3410" y="-235.8" font-family="Times,serif" font-size="14.00">ExecutionsModule</text>
</g>
<!-- DatabaseModule&#45;&gt;ExecutionsModule -->
<g id="edge37" class="edge">
<title>DatabaseModule&#45;&gt;ExecutionsModule</title>
<path fill="none" stroke="black" d="M3464.5,-190.22C3464.5,-190.22 3464.5,-211.73 3464.5,-211.73"/>
<polygon fill="black" stroke="black" points="3461,-211.73 3464.5,-221.73 3468,-211.73 3461,-211.73"/>
</g>
<!-- UserModule -->
<g id="node11" class="node">
<title>UserModule</title>
<polygon fill="#8dd3c7" stroke="black" points="3574.98,-258 3571.98,-262 3550.98,-262 3547.98,-258 3489.02,-258 3489.02,-222 3574.98,-222 3574.98,-258"/>
<text text-anchor="middle" x="3532" y="-235.8" font-family="Times,serif" font-size="14.00">UserModule</text>
</g>
<!-- DatabaseModule&#45;&gt;UserModule -->
<g id="edge48" class="edge">
<title>DatabaseModule&#45;&gt;UserModule</title>
<path fill="none" stroke="black" d="M3492.58,-172C3498.01,-172 3501.55,-172 3501.55,-172 3501.55,-172 3501.55,-211.78 3501.55,-211.78"/>
<polygon fill="black" stroke="black" points="3498.05,-211.78 3501.55,-221.78 3505.05,-211.78 3498.05,-211.78"/>
</g>
<!-- WorkflowsModule -->
<g id="node12" class="node">
<title>WorkflowsModule</title>
<polygon fill="#8dd3c7" stroke="black" points="3715.03,-258 3712.03,-262 3691.03,-262 3688.03,-258 3592.97,-258 3592.97,-222 3715.03,-222 3715.03,-258"/>
<text text-anchor="middle" x="3654" y="-235.8" font-family="Times,serif" font-size="14.00">WorkflowsModule</text>
</g>
<!-- DatabaseModule&#45;&gt;WorkflowsModule -->
<g id="edge53" class="edge">
<title>DatabaseModule&#45;&gt;WorkflowsModule</title>
<path fill="none" stroke="black" d="M3482.97,-190.04C3482.97,-203.29 3482.97,-219 3482.97,-219 3482.97,-219 3618.03,-219 3618.03,-219 3618.03,-219 3618.03,-219.29 3618.03,-219.29"/>
<polygon fill="black" stroke="black" points="3614.53,-211.92 3618.03,-221.92 3621.53,-211.92 3614.53,-211.92"/>
</g>
<!-- DatabaseModule&#45;&gt;AppModule -->
<g id="edge8" class="edge">
<title>DatabaseModule&#45;&gt;AppModule</title>
<path fill="none" stroke="black" d="M3476.92,-190.19C3476.92,-227.46 3476.92,-309 3476.92,-309 3476.92,-309 3642.15,-309 3642.15,-309"/>
<polygon fill="black" stroke="black" points="3642.15,-312.5 3652.15,-309 3642.15,-305.5 3642.15,-312.5"/>
</g>
<!-- ExecutionRepository  -->
<g id="node26" class="node">
<title>ExecutionRepository </title>
<polygon fill="#fb8072" stroke="black" points="2290.7,-258 2153.3,-258 2153.3,-222 2290.7,-222 2290.7,-258"/>
<text text-anchor="middle" x="2222" y="-235.8" font-family="Times,serif" font-size="14.00">ExecutionRepository </text>
</g>
<!-- DatabaseModule&#45;&gt;ExecutionRepository  -->
<g id="edge27" class="edge">
<title>DatabaseModule&#45;&gt;ExecutionRepository </title>
<path fill="none" stroke="black" stroke-dasharray="5,2" d="M3426.23,-190.19C3426.23,-198.28 3426.23,-206 3426.23,-206 3426.23,-206 2222,-206 2222,-206 2222,-206 2222,-211.81 2222,-211.81"/>
<polygon fill="black" stroke="black" points="2218.5,-211.81 2222,-221.81 2225.5,-211.81 2218.5,-211.81"/>
</g>
<!-- NotificationRepository  -->
<g id="node27" class="node">
<title>NotificationRepository </title>
<polygon fill="#fb8072" stroke="black" points="2135.09,-258 1986.91,-258 1986.91,-222 2135.09,-222 2135.09,-258"/>
<text text-anchor="middle" x="2061" y="-235.8" font-family="Times,serif" font-size="14.00">NotificationRepository </text>
</g>
<!-- DatabaseModule&#45;&gt;NotificationRepository  -->
<g id="edge28" class="edge">
<title>DatabaseModule&#45;&gt;NotificationRepository </title>
<path fill="none" stroke="black" stroke-dasharray="5,2" d="M3419.85,-190.04C3419.85,-197.75 3419.85,-205 3419.85,-205 3419.85,-205 2061,-205 2061,-205 2061,-205 2061,-211.68 2061,-211.68"/>
<polygon fill="black" stroke="black" points="2057.5,-211.68 2061,-221.68 2064.5,-211.68 2057.5,-211.68"/>
</g>
<!-- PrismaService  -->
<g id="node28" class="node">
<title>PrismaService </title>
<polygon fill="#fb8072" stroke="black" points="1969.36,-258 1868.64,-258 1868.64,-222 1969.36,-222 1969.36,-258"/>
<text text-anchor="middle" x="1919" y="-235.8" font-family="Times,serif" font-size="14.00">PrismaService </text>
</g>
<!-- DatabaseModule&#45;&gt;PrismaService  -->
<g id="edge29" class="edge">
<title>DatabaseModule&#45;&gt;PrismaService </title>
<path fill="none" stroke="black" stroke-dasharray="5,2" d="M3413.47,-190.03C3413.47,-196.85 3413.47,-203 3413.47,-203 3413.47,-203 1919,-203 1919,-203 1919,-203 1919,-211.93 1919,-211.93"/>
<polygon fill="black" stroke="black" points="1915.5,-211.93 1919,-221.93 1922.5,-211.93 1915.5,-211.93"/>
</g>
<!-- UserRepository  -->
<g id="node29" class="node">
<title>UserRepository </title>
<polygon fill="#fb8072" stroke="black" points="2708.86,-258 2601.14,-258 2601.14,-222 2708.86,-222 2708.86,-258"/>
<text text-anchor="middle" x="2655" y="-235.8" font-family="Times,serif" font-size="14.00">UserRepository </text>
</g>
<!-- DatabaseModule&#45;&gt;UserRepository  -->
<g id="edge30" class="edge">
<title>DatabaseModule&#45;&gt;UserRepository </title>
<path fill="none" stroke="black" stroke-dasharray="5,2" d="M3445.36,-190.13C3445.36,-200.71 3445.36,-212 3445.36,-212 3445.36,-212 2655,-212 2655,-212 2655,-212 2655,-212.98 2655,-212.98"/>
<polygon fill="black" stroke="black" points="2651.5,-211.79 2655,-221.79 2658.5,-211.79 2651.5,-211.79"/>
</g>
<!-- WalletRepository  -->
<g id="node30" class="node">
<title>WalletRepository </title>
<polygon fill="#fb8072" stroke="black" points="2583.25,-258 2464.75,-258 2464.75,-222 2583.25,-222 2583.25,-258"/>
<text text-anchor="middle" x="2524" y="-235.8" font-family="Times,serif" font-size="14.00">WalletRepository </text>
</g>
<!-- DatabaseModule&#45;&gt;WalletRepository  -->
<g id="edge31" class="edge">
<title>DatabaseModule&#45;&gt;WalletRepository </title>
<path fill="none" stroke="black" stroke-dasharray="5,2" d="M3438.98,-190.11C3438.98,-199.9 3438.98,-210 3438.98,-210 3438.98,-210 2524,-210 2524,-210 2524,-210 2524,-211.86 2524,-211.86"/>
<polygon fill="black" stroke="black" points="2520.5,-211.86 2524,-221.86 2527.5,-211.86 2520.5,-211.86"/>
</g>
<!-- WorkflowRepository  -->
<g id="node31" class="node">
<title>WorkflowRepository </title>
<polygon fill="#fb8072" stroke="black" points="2447.47,-258 2308.53,-258 2308.53,-222 2447.47,-222 2447.47,-258"/>
<text text-anchor="middle" x="2378" y="-235.8" font-family="Times,serif" font-size="14.00">WorkflowRepository </text>
</g>
<!-- DatabaseModule&#45;&gt;WorkflowRepository  -->
<g id="edge32" class="edge">
<title>DatabaseModule&#45;&gt;WorkflowRepository </title>
<path fill="none" stroke="black" stroke-dasharray="5,2" d="M3432.61,-190.42C3432.61,-199.28 3432.61,-208 3432.61,-208 3432.61,-208 2378,-208 2378,-208 2378,-208 2378,-211.76 2378,-211.76"/>
<polygon fill="black" stroke="black" points="2374.5,-211.76 2378,-221.76 2381.5,-211.76 2374.5,-211.76"/>
</g>
<!-- ExecutionsModule&#45;&gt;AppModule -->
<g id="edge9" class="edge">
<title>ExecutionsModule&#45;&gt;AppModule</title>
<path fill="none" stroke="black" d="M3455.66,-258.04C3455.66,-279.66 3455.66,-313 3455.66,-313 3455.66,-313 3642.21,-313 3642.21,-313"/>
<polygon fill="black" stroke="black" points="3642.21,-316.5 3652.21,-313 3642.21,-309.5 3642.21,-316.5"/>
</g>
<!-- ExecutionsService  -->
<g id="node36" class="node">
<title>ExecutionsService </title>
<polygon fill="#fb8072" stroke="black" points="2185.69,-334 2062.31,-334 2062.31,-298 2185.69,-298 2185.69,-334"/>
<text text-anchor="middle" x="2124" y="-311.8" font-family="Times,serif" font-size="14.00">ExecutionsService </text>
</g>
<!-- ExecutionsModule&#45;&gt;ExecutionsService  -->
<g id="edge38" class="edge">
<title>ExecutionsModule&#45;&gt;ExecutionsService </title>
<path fill="none" stroke="black" stroke-dasharray="5,2" d="M3440.44,-258.18C3440.44,-271.04 3440.44,-286 3440.44,-286 3440.44,-286 2169.5,-286 2169.5,-286 2169.5,-286 2169.5,-287.86 2169.5,-287.86"/>
<polygon fill="black" stroke="black" points="2166,-287.86 2169.5,-297.86 2173,-287.86 2166,-287.86"/>
</g>
<!-- NodeExecutionsService  -->
<g id="node37" class="node">
<title>NodeExecutionsService </title>
<polygon fill="#fb8072" stroke="black" points="2044.01,-334 1889.99,-334 1889.99,-298 2044.01,-298 2044.01,-334"/>
<text text-anchor="middle" x="1967" y="-311.8" font-family="Times,serif" font-size="14.00">NodeExecutionsService </text>
</g>
<!-- ExecutionsModule&#45;&gt;NodeExecutionsService  -->
<g id="edge39" class="edge">
<title>ExecutionsModule&#45;&gt;NodeExecutionsService </title>
<path fill="none" stroke="black" stroke-dasharray="5,2" d="M3425.22,-258.15C3425.22,-270.27 3425.22,-284 3425.22,-284 3425.22,-284 2015.35,-284 2015.35,-284 2015.35,-284 2015.35,-287.76 2015.35,-287.76"/>
<polygon fill="black" stroke="black" points="2011.85,-287.76 2015.35,-297.76 2018.85,-287.76 2011.85,-287.76"/>
</g>
<!-- NodeLogsService  -->
<g id="node38" class="node">
<title>NodeLogsService </title>
<polygon fill="#fb8072" stroke="black" points="1871.8,-334 1752.2,-334 1752.2,-298 1871.8,-298 1871.8,-334"/>
<text text-anchor="middle" x="1812" y="-311.8" font-family="Times,serif" font-size="14.00">NodeLogsService </text>
</g>
<!-- ExecutionsModule&#45;&gt;NodeLogsService  -->
<g id="edge40" class="edge">
<title>ExecutionsModule&#45;&gt;NodeLogsService </title>
<path fill="none" stroke="black" stroke-dasharray="5,2" d="M3410,-258.06C3410,-269.44 3410,-282 3410,-282 3410,-282 1856.96,-282 1856.96,-282 1856.96,-282 1856.96,-287.81 1856.96,-287.81"/>
<polygon fill="black" stroke="black" points="1853.46,-287.81 1856.96,-297.81 1860.46,-287.81 1853.46,-287.81"/>
</g>
<!-- NotificationsModule -->
<g id="node10" class="node">
<title>NotificationsModule</title>
<polygon fill="#8dd3c7" stroke="black" points="3643.14,-190 3640.14,-194 3619.14,-194 3616.14,-190 3510.86,-190 3510.86,-154 3643.14,-154 3643.14,-190"/>
<text text-anchor="middle" x="3577" y="-167.8" font-family="Times,serif" font-size="14.00">NotificationsModule</text>
</g>
<!-- NotificationsModule&#45;&gt;AppModule -->
<g id="edge10" class="edge">
<title>NotificationsModule&#45;&gt;AppModule</title>
<path fill="none" stroke="black" d="M3583.86,-190.08C3583.86,-225.8 3583.86,-302 3583.86,-302 3583.86,-302 3642.05,-302 3642.05,-302"/>
<polygon fill="black" stroke="black" points="3642.05,-305.5 3652.05,-302 3642.05,-298.5 3642.05,-305.5"/>
</g>
<!-- NotificationsService  -->
<g id="node42" class="node">
<title>NotificationsService </title>
<polygon fill="#fb8072" stroke="black" points="3087.07,-258 2952.93,-258 2952.93,-222 3087.07,-222 3087.07,-258"/>
<text text-anchor="middle" x="3020" y="-235.8" font-family="Times,serif" font-size="14.00">NotificationsService </text>
</g>
<!-- NotificationsModule&#45;&gt;NotificationsService  -->
<g id="edge44" class="edge">
<title>NotificationsModule&#45;&gt;NotificationsService </title>
<path fill="none" stroke="black" stroke-dasharray="5,2" d="M3553.55,-190.49C3553.55,-202.14 3553.55,-215 3553.55,-215 3553.55,-215 3020,-215 3020,-215 3020,-215 3020,-215.68 3020,-215.68"/>
<polygon fill="black" stroke="black" points="3016.5,-211.83 3020,-221.83 3023.5,-211.83 3016.5,-211.83"/>
</g>
<!-- UserModule&#45;&gt;AppModule -->
<g id="edge11" class="edge">
<title>UserModule&#45;&gt;AppModule</title>
<path fill="none" stroke="black" d="M3560.66,-258.03C3560.66,-277.58 3560.66,-306 3560.66,-306 3560.66,-306 3642.18,-306 3642.18,-306"/>
<polygon fill="black" stroke="black" points="3642.18,-309.5 3652.18,-306 3642.18,-302.5 3642.18,-309.5"/>
</g>
<!-- UserService  -->
<g id="node47" class="node">
<title>UserService </title>
<polygon fill="#fb8072" stroke="black" points="2732.9,-334 2645.1,-334 2645.1,-298 2732.9,-298 2732.9,-334"/>
<text text-anchor="middle" x="2689" y="-311.8" font-family="Times,serif" font-size="14.00">UserService </text>
</g>
<!-- UserModule&#45;&gt;UserService  -->
<g id="edge49" class="edge">
<title>UserModule&#45;&gt;UserService </title>
<path fill="none" stroke="black" stroke-dasharray="5,2" d="M3546.33,-258.28C3546.33,-273.95 3546.33,-294 3546.33,-294 3546.33,-294 2720.82,-294 2720.82,-294 2720.82,-294 2720.82,-294.38 2720.82,-294.38"/>
<polygon fill="black" stroke="black" points="2717.32,-287.83 2720.82,-297.83 2724.32,-287.83 2717.32,-287.83"/>
</g>
<!-- WalletsService  -->
<g id="node48" class="node">
<title>WalletsService </title>
<polygon fill="#fb8072" stroke="black" points="2627.24,-334 2522.76,-334 2522.76,-298 2627.24,-298 2627.24,-334"/>
<text text-anchor="middle" x="2575" y="-311.8" font-family="Times,serif" font-size="14.00">WalletsService </text>
</g>
<!-- UserModule&#45;&gt;WalletsService  -->
<g id="edge50" class="edge">
<title>UserModule&#45;&gt;WalletsService </title>
<path fill="none" stroke="black" stroke-dasharray="5,2" d="M3532,-258.19C3532,-273.18 3532,-292 3532,-292 3532,-292 2614.22,-292 2614.22,-292 2614.22,-292 2614.22,-292.58 2614.22,-292.58"/>
<polygon fill="black" stroke="black" points="2610.72,-287.81 2614.22,-297.81 2617.72,-287.81 2610.72,-287.81"/>
</g>
<!-- WorkflowsModule&#45;&gt;AppModule -->
<g id="edge12" class="edge">
<title>WorkflowsModule&#45;&gt;AppModule</title>
<path fill="none" stroke="black" d="M3683.72,-258.01C3683.72,-258.01 3683.72,-287.85 3683.72,-287.85"/>
<polygon fill="black" stroke="black" points="3680.22,-287.85 3683.72,-297.85 3687.22,-287.85 3680.22,-287.85"/>
</g>
<!-- WorkflowsService  -->
<g id="node51" class="node">
<title>WorkflowsService </title>
<polygon fill="#fb8072" stroke="black" points="3087.46,-334 2962.54,-334 2962.54,-298 3087.46,-298 3087.46,-334"/>
<text text-anchor="middle" x="3025" y="-311.8" font-family="Times,serif" font-size="14.00">WorkflowsService </text>
</g>
<!-- WorkflowsModule&#45;&gt;WorkflowsService  -->
<g id="edge55" class="edge">
<title>WorkflowsModule&#45;&gt;WorkflowsService </title>
<path fill="none" stroke="black" stroke-dasharray="5,2" d="M3632.36,-258.42C3632.36,-285.01 3632.36,-331 3632.36,-331 3632.36,-331 3097.43,-331 3097.43,-331"/>
<polygon fill="black" stroke="black" points="3097.43,-327.5 3087.43,-331 3097.43,-334.5 3097.43,-327.5"/>
</g>
<!-- AuthService -->
<g id="node17" class="node">
<title>AuthService</title>
<ellipse fill="#fdb462" stroke="black" cx="369" cy="-316" rx="59.11" ry="18"/>
<text text-anchor="middle" x="369" y="-311.8" font-family="Times,serif" font-size="14.00">AuthService</text>
</g>
<!-- AuthService&#45;&gt;AuthModule -->
<g id="edge17" class="edge">
<title>AuthService&#45;&gt;AuthModule</title>
<path fill="none" stroke="black" d="M369,-297.76C369,-282.43 369,-263 369,-263 369,-263 3152.24,-263 3152.24,-263 3152.24,-263 3152.24,-262.51 3152.24,-262.51"/>
<polygon fill="black" stroke="black" points="3155.74,-268.12 3152.24,-258.12 3148.74,-268.12 3155.74,-268.12"/>
</g>
<!-- JwtAuthGuard -->
<g id="node18" class="node">
<title>JwtAuthGuard</title>
<ellipse fill="#fdb462" stroke="black" cx="224" cy="-316" rx="67.78" ry="18"/>
<text text-anchor="middle" x="224" y="-311.8" font-family="Times,serif" font-size="14.00">JwtAuthGuard</text>
</g>
<!-- JwtAuthGuard&#45;&gt;AuthModule -->
<g id="edge18" class="edge">
<title>JwtAuthGuard&#45;&gt;AuthModule</title>
<path fill="none" stroke="black" d="M224,-297.99C224,-281.95 224,-261 224,-261 224,-261 3139.73,-261 3139.73,-261 3139.73,-261 3139.73,-260.71 3139.73,-260.71"/>
<polygon fill="black" stroke="black" points="3143.23,-268.08 3139.73,-258.08 3136.23,-268.08 3143.23,-268.08"/>
</g>
<!-- JwtStrategy -->
<g id="node19" class="node">
<title>JwtStrategy</title>
<ellipse fill="#fdb462" stroke="black" cx="81" cy="-316" rx="56.76" ry="18"/>
<text text-anchor="middle" x="81" y="-311.8" font-family="Times,serif" font-size="14.00">JwtStrategy</text>
</g>
<!-- JwtStrategy&#45;&gt;AuthModule -->
<g id="edge19" class="edge">
<title>JwtStrategy&#45;&gt;AuthModule</title>
<path fill="none" stroke="black" d="M81,-297.97C81,-263.58 81,-192 81,-192 81,-192 3156.41,-192 3156.41,-192 3156.41,-192 3156.41,-211.85 3156.41,-211.85"/>
<polygon fill="black" stroke="black" points="3152.91,-211.85 3156.41,-221.85 3159.91,-211.85 3152.91,-211.85"/>
</g>
<!-- BillingService -->
<g id="node21" class="node">
<title>BillingService</title>
<ellipse fill="#fdb462" stroke="black" cx="562" cy="-240" rx="66.65" ry="18"/>
<text text-anchor="middle" x="562" y="-235.8" font-family="Times,serif" font-size="14.00">BillingService</text>
</g>
<!-- BillingService&#45;&gt;BillingModule -->
<g id="edge21" class="edge">
<title>BillingService&#45;&gt;BillingModule</title>
<path fill="none" stroke="black" d="M562,-221.71C562,-199.79 562,-166 562,-166 562,-166 3116.69,-166 3116.69,-166"/>
<polygon fill="black" stroke="black" points="3116.69,-169.5 3126.69,-166 3116.69,-162.5 3116.69,-169.5"/>
</g>
<!-- BlocksService -->
<g id="node23" class="node">
<title>BlocksService</title>
<ellipse fill="#fdb462" stroke="black" cx="927" cy="-316" rx="66.63" ry="18"/>
<text text-anchor="middle" x="927" y="-311.8" font-family="Times,serif" font-size="14.00">BlocksService</text>
</g>
<!-- BlocksService&#45;&gt;BlocksModule -->
<g id="edge24" class="edge">
<title>BlocksService&#45;&gt;BlocksModule</title>
<path fill="none" stroke="black" d="M987.38,-308.16C987.38,-295.27 987.38,-271 987.38,-271 987.38,-271 3257.39,-271 3257.39,-271 3257.39,-271 3257.39,-268.03 3257.39,-268.03"/>
<polygon fill="black" stroke="black" points="3260.89,-268.03 3257.39,-258.03 3253.89,-268.03 3260.89,-268.03"/>
</g>
<!-- DashboardService -->
<g id="node25" class="node">
<title>DashboardService</title>
<ellipse fill="#fdb462" stroke="black" cx="875" cy="-240" rx="81.64" ry="18"/>
<text text-anchor="middle" x="875" y="-235.8" font-family="Times,serif" font-size="14.00">DashboardService</text>
</g>
<!-- DashboardService&#45;&gt;DashboardModule -->
<g id="edge26" class="edge">
<title>DashboardService&#45;&gt;DashboardModule</title>
<path fill="none" stroke="black" d="M875,-221.76C875,-192.43 875,-138 875,-138 875,-138 3303,-138 3303,-138 3303,-138 3303,-143.81 3303,-143.81"/>
<polygon fill="black" stroke="black" points="3299.5,-143.81 3303,-153.81 3306.5,-143.81 3299.5,-143.81"/>
</g>
<!-- ExecutionRepository -->
<g id="node32" class="node">
<title>ExecutionRepository</title>
<ellipse fill="#fdb462" stroke="black" cx="1548" cy="-240" rx="92.64" ry="18"/>
<text text-anchor="middle" x="1548" y="-235.8" font-family="Times,serif" font-size="14.00">ExecutionRepository</text>
</g>
<!-- ExecutionRepository&#45;&gt;DatabaseModule -->
<g id="edge33" class="edge">
<title>ExecutionRepository&#45;&gt;DatabaseModule</title>
<path fill="none" stroke="black" d="M1548,-221.9C1548,-210.91 1548,-199 1548,-199 1548,-199 3400.71,-199 3400.71,-199 3400.71,-199 3400.71,-198.12 3400.71,-198.12"/>
<polygon fill="black" stroke="black" points="3404.21,-200.16 3400.71,-190.16 3397.21,-200.16 3404.21,-200.16"/>
</g>
<!-- PrismaService -->
<g id="node33" class="node">
<title>PrismaService</title>
<ellipse fill="#fdb462" stroke="black" cx="1371" cy="-240" rx="66.63" ry="18"/>
<text text-anchor="middle" x="1371" y="-235.8" font-family="Times,serif" font-size="14.00">PrismaService</text>
</g>
<!-- PrismaService&#45;&gt;DatabaseModule -->
<g id="edge34" class="edge">
<title>PrismaService&#45;&gt;DatabaseModule</title>
<path fill="none" stroke="black" d="M1371,-221.94C1371,-210.56 1371,-198 1371,-198 1371,-198 3394.33,-198 3394.33,-198 3394.33,-198 3394.33,-197.21 3394.33,-197.21"/>
<polygon fill="black" stroke="black" points="3397.83,-200.06 3394.33,-190.06 3390.83,-200.06 3397.83,-200.06"/>
</g>
<!-- UserRepository -->
<g id="node34" class="node">
<title>UserRepository</title>
<ellipse fill="#fdb462" stroke="black" cx="1215" cy="-240" rx="71.79" ry="18"/>
<text text-anchor="middle" x="1215" y="-235.8" font-family="Times,serif" font-size="14.00">UserRepository</text>
</g>
<!-- UserRepository&#45;&gt;DatabaseModule -->
<g id="edge35" class="edge">
<title>UserRepository&#45;&gt;DatabaseModule</title>
<path fill="none" stroke="black" d="M1215,-221.85C1215,-209.73 1215,-196 1215,-196 1215,-196 3387.95,-196 3387.95,-196 3387.95,-196 3387.95,-195.42 3387.95,-195.42"/>
<polygon fill="black" stroke="black" points="3391.45,-200.19 3387.95,-190.19 3384.45,-200.19 3391.45,-200.19"/>
</g>
<!-- WorkflowRepository -->
<g id="node35" class="node">
<title>WorkflowRepository</title>
<ellipse fill="#fdb462" stroke="black" cx="1752" cy="-240" rx="93.2" ry="18"/>
<text text-anchor="middle" x="1752" y="-235.8" font-family="Times,serif" font-size="14.00">WorkflowRepository</text>
</g>
<!-- WorkflowRepository&#45;&gt;DatabaseModule -->
<g id="edge36" class="edge">
<title>WorkflowRepository&#45;&gt;DatabaseModule</title>
<path fill="none" stroke="black" d="M1752,-221.87C1752,-211.69 1752,-201 1752,-201 1752,-201 3407.09,-201 3407.09,-201 3407.09,-201 3407.09,-199.92 3407.09,-199.92"/>
<polygon fill="black" stroke="black" points="3410.59,-200.2 3407.09,-190.2 3403.59,-200.2 3410.59,-200.2"/>
</g>
<!-- ExecutionsService -->
<g id="node39" class="node">
<title>ExecutionsService</title>
<ellipse fill="#fdb462" stroke="black" cx="1645" cy="-316" rx="82.8" ry="18"/>
<text text-anchor="middle" x="1645" y="-311.8" font-family="Times,serif" font-size="14.00">ExecutionsService</text>
</g>
<!-- ExecutionsService&#45;&gt;ExecutionsModule -->
<g id="edge41" class="edge">
<title>ExecutionsService&#45;&gt;ExecutionsModule</title>
<path fill="none" stroke="black" d="M1693.4,-301.36C1693.4,-291.39 1693.4,-280 1693.4,-280 1693.4,-280 3394.78,-280 3394.78,-280 3394.78,-280 3394.78,-268.13 3394.78,-268.13"/>
<polygon fill="black" stroke="black" points="3398.28,-268.13 3394.78,-258.13 3391.28,-268.13 3398.28,-268.13"/>
</g>
<!-- NodeExecutionsService -->
<g id="node40" class="node">
<title>NodeExecutionsService</title>
<ellipse fill="#fdb462" stroke="black" cx="1440" cy="-316" rx="103.63" ry="18"/>
<text text-anchor="middle" x="1440" y="-311.8" font-family="Times,serif" font-size="14.00">NodeExecutionsService</text>
</g>
<!-- NodeExecutionsService&#45;&gt;ExecutionsModule -->
<g id="edge42" class="edge">
<title>NodeExecutionsService&#45;&gt;ExecutionsModule</title>
<path fill="none" stroke="black" d="M1499.62,-301.03C1499.62,-290.03 1499.62,-277 1499.62,-277 1499.62,-277 3379.56,-277 3379.56,-277 3379.56,-277 3379.56,-268.07 3379.56,-268.07"/>
<polygon fill="black" stroke="black" points="3383.06,-268.07 3379.56,-258.07 3376.06,-268.07 3383.06,-268.07"/>
</g>
<!-- NodeLogsService -->
<g id="node41" class="node">
<title>NodeLogsService</title>
<ellipse fill="#fdb462" stroke="black" cx="1238" cy="-316" rx="80.44" ry="18"/>
<text text-anchor="middle" x="1238" y="-311.8" font-family="Times,serif" font-size="14.00">NodeLogsService</text>
</g>
<!-- NodeLogsService&#45;&gt;ExecutionsModule -->
<g id="edge43" class="edge">
<title>NodeLogsService&#45;&gt;ExecutionsModule</title>
<path fill="none" stroke="black" d="M1311.2,-308.48C1311.2,-296.64 1311.2,-275 1311.2,-275 1311.2,-275 3364.34,-275 3364.34,-275 3364.34,-275 3364.34,-268.32 3364.34,-268.32"/>
<polygon fill="black" stroke="black" points="3367.84,-268.32 3364.34,-258.32 3360.84,-268.32 3367.84,-268.32"/>
</g>
<!-- NotificationsService -->
<g id="node43" class="node">
<title>NotificationsService</title>
<ellipse fill="#fdb462" stroke="black" cx="2839" cy="-240" rx="90.32" ry="18"/>
<text text-anchor="middle" x="2839" y="-235.8" font-family="Times,serif" font-size="14.00">NotificationsService</text>
</g>
<!-- NotificationsService&#45;&gt;NotificationsModule -->
<g id="edge45" class="edge">
<title>NotificationsService&#45;&gt;NotificationsModule</title>
<path fill="none" stroke="black" d="M2839,-221.94C2839,-217.51 2839,-214 2839,-214 2839,-214 3532.11,-214 3532.11,-214 3532.11,-214 3532.11,-200.06 3532.11,-200.06"/>
<polygon fill="black" stroke="black" points="3535.61,-200.06 3532.11,-190.06 3528.61,-200.06 3535.61,-200.06"/>
</g>
<!-- QueueService  -->
<g id="node44" class="node">
<title>QueueService </title>
<polygon fill="#fb8072" stroke="black" points="3933.01,-258 3834.99,-258 3834.99,-222 3933.01,-222 3933.01,-258"/>
<text text-anchor="middle" x="3884" y="-235.8" font-family="Times,serif" font-size="14.00">QueueService </text>
</g>
<!-- QueueModule -->
<g id="node45" class="node">
<title>QueueModule</title>
<polygon fill="#8dd3c7" stroke="black" points="3932.09,-190 3929.09,-194 3908.09,-194 3905.09,-190 3835.91,-190 3835.91,-154 3932.09,-154 3932.09,-190"/>
<text text-anchor="middle" x="3884" y="-167.8" font-family="Times,serif" font-size="14.00">QueueModule</text>
</g>
<!-- QueueModule&#45;&gt;WorkflowsModule -->
<g id="edge54" class="edge">
<title>QueueModule&#45;&gt;WorkflowsModule</title>
<path fill="none" stroke="black" d="M3835.75,-172C3775.23,-172 3679.29,-172 3679.29,-172 3679.29,-172 3679.29,-211.78 3679.29,-211.78"/>
<polygon fill="black" stroke="black" points="3675.79,-211.78 3679.29,-221.78 3682.79,-211.78 3675.79,-211.78"/>
</g>
<!-- QueueModule&#45;&gt;QueueService  -->
<g id="edge46" class="edge">
<title>QueueModule&#45;&gt;QueueService </title>
<path fill="none" stroke="black" stroke-dasharray="5,2" d="M3884,-190.22C3884,-190.22 3884,-211.73 3884,-211.73"/>
<polygon fill="black" stroke="black" points="3880.5,-211.73 3884,-221.73 3887.5,-211.73 3880.5,-211.73"/>
</g>
<!-- QueueService -->
<g id="node46" class="node">
<title>QueueService</title>
<ellipse fill="#fdb462" stroke="black" cx="3892" cy="-104" rx="65.39" ry="18"/>
<text text-anchor="middle" x="3892" y="-99.8" font-family="Times,serif" font-size="14.00">QueueService</text>
</g>
<!-- QueueService&#45;&gt;QueueModule -->
<g id="edge47" class="edge">
<title>QueueService&#45;&gt;QueueModule</title>
<path fill="none" stroke="black" d="M3884,-121.87C3884,-121.87 3884,-143.54 3884,-143.54"/>
<polygon fill="black" stroke="black" points="3880.5,-143.54 3884,-153.54 3887.5,-143.54 3880.5,-143.54"/>
</g>
<!-- UserService -->
<g id="node49" class="node">
<title>UserService</title>
<ellipse fill="#fdb462" stroke="black" cx="2441" cy="-316" rx="58.44" ry="18"/>
<text text-anchor="middle" x="2441" y="-311.8" font-family="Times,serif" font-size="14.00">UserService</text>
</g>
<!-- UserService&#45;&gt;UserModule -->
<g id="edge51" class="edge">
<title>UserService&#45;&gt;UserModule</title>
<path fill="none" stroke="black" d="M2482.05,-303C2482.05,-296.5 2482.05,-290 2482.05,-290 2482.05,-290 3517.67,-290 3517.67,-290 3517.67,-290 3517.67,-268.05 3517.67,-268.05"/>
<polygon fill="black" stroke="black" points="3521.17,-268.05 3517.67,-258.05 3514.17,-268.05 3521.17,-268.05"/>
</g>
<!-- WalletsService -->
<g id="node50" class="node">
<title>WalletsService</title>
<ellipse fill="#fdb462" stroke="black" cx="2295" cy="-316" rx="69.47" ry="18"/>
<text text-anchor="middle" x="2295" y="-311.8" font-family="Times,serif" font-size="14.00">WalletsService</text>
</g>
<!-- WalletsService&#45;&gt;UserModule -->
<g id="edge52" class="edge">
<title>WalletsService&#45;&gt;UserModule</title>
<path fill="none" stroke="black" d="M2336.63,-301.34C2336.63,-294.57 2336.63,-288 2336.63,-288 2336.63,-288 3503.34,-288 3503.34,-288 3503.34,-288 3503.34,-268.15 3503.34,-268.15"/>
<polygon fill="black" stroke="black" points="3506.84,-268.15 3503.34,-258.15 3499.84,-268.15 3506.84,-268.15"/>
</g>
<!-- WorkflowsService -->
<g id="node52" class="node">
<title>WorkflowsService</title>
<ellipse fill="#fdb462" stroke="black" cx="2856" cy="-316" rx="83.37" ry="18"/>
<text text-anchor="middle" x="2856" y="-311.8" font-family="Times,serif" font-size="14.00">WorkflowsService</text>
</g>
<!-- WorkflowsService&#45;&gt;WorkflowsModule -->
<g id="edge56" class="edge">
<title>WorkflowsService&#45;&gt;WorkflowsModule</title>
<path fill="none" stroke="black" d="M2934.42,-309.67C2934.42,-303.81 2934.42,-296 2934.42,-296 2934.42,-296 3612.55,-296 3612.55,-296 3612.55,-296 3612.55,-268.03 3612.55,-268.03"/>
<polygon fill="black" stroke="black" points="3616.05,-268.03 3612.55,-258.03 3609.05,-268.03 3616.05,-268.03"/>
</g>
</g>
</svg>
