<?xml version="1.0" encoding="UTF-8" standalone="no"?>
<!DOCTYPE svg PUBLIC "-//W3C//DTD SVG 1.1//EN"
 "http://www.w3.org/Graphics/SVG/1.1/DTD/svg11.dtd">
<!-- Generated by graphviz version 2.47.0 (20210316.0004)
 -->
<!-- Title: dependencies Pages: 1 -->
<svg width="504pt" height="284pt"
 viewBox="0.00 0.00 504.00 284.00" xmlns="http://www.w3.org/2000/svg" xmlns:xlink="http://www.w3.org/1999/xlink">
<g id="graph0" class="graph" transform="scale(1 1) rotate(0) translate(4 280)">
<title>dependencies</title>
<polygon fill="white" stroke="transparent" points="-4,4 -4,-280 500,-280 500,4 -4,4"/>
<text text-anchor="start" x="227.01" y="-42.4" font-family="Times-12" font-weight="bold" font-size="14.00">Legend</text>
<polygon fill="#ffffb3" stroke="transparent" points="14,-10 14,-30 34,-30 34,-10 14,-10"/>
<text text-anchor="start" x="37.63" y="-15.4" font-family="Times-12" font-size="14.00"> &#160;Declarations</text>
<polygon fill="#8dd3c7" stroke="transparent" points="127,-10 127,-30 147,-30 147,-10 127,-10"/>
<text text-anchor="start" x="150.73" y="-15.4" font-family="Times-12" font-size="14.00"> &#160;Module</text>
<polygon fill="#80b1d3" stroke="transparent" points="213,-10 213,-30 233,-30 233,-10 213,-10"/>
<text text-anchor="start" x="236.78" y="-15.4" font-family="Times-12" font-size="14.00"> &#160;Bootstrap</text>
<polygon fill="#fdb462" stroke="transparent" points="310,-10 310,-30 330,-30 330,-10 310,-10"/>
<text text-anchor="start" x="333.67" y="-15.4" font-family="Times-12" font-size="14.00"> &#160;Providers</text>
<polygon fill="#fb8072" stroke="transparent" points="406,-10 406,-30 426,-30 426,-10 406,-10"/>
<text text-anchor="start" x="429.73" y="-15.4" font-family="Times-12" font-size="14.00"> &#160;Exports</text>
<g id="clust1" class="cluster">
<title>cluster_WorkflowsModule</title>
<polygon fill="none" stroke="black" stroke-dasharray="1,5" points="25,-70 25,-268 471,-268 471,-70 25,-70"/>
</g>
<g id="clust3" class="cluster">
<title>cluster_WorkflowsModule_imports</title>
<polygon fill="none" stroke="black" points="223,-78 223,-130 463,-130 463,-78 223,-78"/>
</g>
<g id="clust4" class="cluster">
<title>cluster_WorkflowsModule_exports</title>
<polygon fill="none" stroke="black" points="209,-208 209,-260 349,-260 349,-208 209,-208"/>
</g>
<g id="clust6" class="cluster">
<title>cluster_WorkflowsModule_providers</title>
<polygon fill="none" stroke="black" points="33,-78 33,-130 215,-130 215,-78 33,-78"/>
</g>
<!-- DatabaseModule -->
<g id="node1" class="node">
<title>DatabaseModule</title>
<polygon fill="#8dd3c7" stroke="black" points="455.35,-122 452.35,-126 431.35,-126 428.35,-122 344.65,-122 344.65,-86 455.35,-86 455.35,-122"/>
<text text-anchor="middle" x="400" y="-99.8" font-family="Times,serif" font-size="14.00">DatabaseModule</text>
</g>
<!-- WorkflowsModule -->
<g id="node3" class="node">
<title>WorkflowsModule</title>
<polygon fill="#8dd3c7" stroke="black" points="340.03,-187 337.03,-191 316.03,-191 313.03,-187 217.97,-187 217.97,-151 340.03,-151 340.03,-187"/>
<text text-anchor="middle" x="279" y="-164.8" font-family="Times,serif" font-size="14.00">WorkflowsModule</text>
</g>
<!-- DatabaseModule&#45;&gt;WorkflowsModule -->
<g id="edge1" class="edge">
<title>DatabaseModule&#45;&gt;WorkflowsModule</title>
<path fill="none" stroke="black" d="M344.61,-104C338.06,-104 333.65,-104 333.65,-104 333.65,-104 333.65,-140.89 333.65,-140.89"/>
<polygon fill="black" stroke="black" points="330.15,-140.89 333.65,-150.89 337.15,-140.89 330.15,-140.89"/>
</g>
<!-- QueueModule -->
<g id="node2" class="node">
<title>QueueModule</title>
<polygon fill="#8dd3c7" stroke="black" points="327.09,-122 324.09,-126 303.09,-126 300.09,-122 230.91,-122 230.91,-86 327.09,-86 327.09,-122"/>
<text text-anchor="middle" x="279" y="-99.8" font-family="Times,serif" font-size="14.00">QueueModule</text>
</g>
<!-- QueueModule&#45;&gt;WorkflowsModule -->
<g id="edge2" class="edge">
<title>QueueModule&#45;&gt;WorkflowsModule</title>
<path fill="none" stroke="black" d="M279,-122.11C279,-122.11 279,-140.99 279,-140.99"/>
<polygon fill="black" stroke="black" points="275.5,-140.99 279,-150.99 282.5,-140.99 275.5,-140.99"/>
</g>
<!-- WorkflowsService  -->
<g id="node4" class="node">
<title>WorkflowsService </title>
<polygon fill="#fb8072" stroke="black" points="341.46,-252 216.54,-252 216.54,-216 341.46,-216 341.46,-252"/>
<text text-anchor="middle" x="279" y="-229.8" font-family="Times,serif" font-size="14.00">WorkflowsService </text>
</g>
<!-- WorkflowsModule&#45;&gt;WorkflowsService  -->
<g id="edge3" class="edge">
<title>WorkflowsModule&#45;&gt;WorkflowsService </title>
<path fill="none" stroke="black" stroke-dasharray="5,2" d="M279,-187.11C279,-187.11 279,-205.99 279,-205.99"/>
<polygon fill="black" stroke="black" points="275.5,-205.99 279,-215.99 282.5,-205.99 275.5,-205.99"/>
</g>
<!-- WorkflowsService -->
<g id="node5" class="node">
<title>WorkflowsService</title>
<ellipse fill="#fdb462" stroke="black" cx="124" cy="-104" rx="83.37" ry="18"/>
<text text-anchor="middle" x="124" y="-99.8" font-family="Times,serif" font-size="14.00">WorkflowsService</text>
</g>
<!-- WorkflowsService&#45;&gt;WorkflowsModule -->
<g id="edge4" class="edge">
<title>WorkflowsService&#45;&gt;WorkflowsModule</title>
<path fill="none" stroke="black" d="M207.78,-104C217.68,-104 224.35,-104 224.35,-104 224.35,-104 224.35,-140.89 224.35,-140.89"/>
<polygon fill="black" stroke="black" points="220.85,-140.89 224.35,-150.89 227.85,-140.89 220.85,-140.89"/>
</g>
</g>
</svg>
