<?xml version="1.0" encoding="UTF-8" standalone="no"?>
<!DOCTYPE svg PUBLIC "-//W3C//DTD SVG 1.1//EN"
 "http://www.w3.org/Graphics/SVG/1.1/DTD/svg11.dtd">
<!-- Generated by graphviz version 2.47.0 (20210316.0004)
 -->
<!-- Title: dependencies Pages: 1 -->
<svg width="1269pt" height="211pt"
 viewBox="0.00 0.00 1269.00 211.00" xmlns="http://www.w3.org/2000/svg" xmlns:xlink="http://www.w3.org/1999/xlink">
<g id="graph0" class="graph" transform="scale(1 1) rotate(0) translate(4 207)">
<title>dependencies</title>
<polygon fill="white" stroke="transparent" points="-4,4 -4,-207 1265,-207 1265,4 -4,4"/>
<text text-anchor="start" x="609.51" y="-42.4" font-family="Times-12" font-weight="bold" font-size="14.00">Legend</text>
<polygon fill="#ffffb3" stroke="transparent" points="396.5,-10 396.5,-30 416.5,-30 416.5,-10 396.5,-10"/>
<text text-anchor="start" x="420.13" y="-15.4" font-family="Times-12" font-size="14.00"> &#160;Declarations</text>
<polygon fill="#8dd3c7" stroke="transparent" points="509.5,-10 509.5,-30 529.5,-30 529.5,-10 509.5,-10"/>
<text text-anchor="start" x="533.23" y="-15.4" font-family="Times-12" font-size="14.00"> &#160;Module</text>
<polygon fill="#80b1d3" stroke="transparent" points="595.5,-10 595.5,-30 615.5,-30 615.5,-10 595.5,-10"/>
<text text-anchor="start" x="619.28" y="-15.4" font-family="Times-12" font-size="14.00"> &#160;Bootstrap</text>
<polygon fill="#fdb462" stroke="transparent" points="692.5,-10 692.5,-30 712.5,-30 712.5,-10 692.5,-10"/>
<text text-anchor="start" x="716.17" y="-15.4" font-family="Times-12" font-size="14.00"> &#160;Providers</text>
<polygon fill="#fb8072" stroke="transparent" points="788.5,-10 788.5,-30 808.5,-30 808.5,-10 788.5,-10"/>
<text text-anchor="start" x="812.23" y="-15.4" font-family="Times-12" font-size="14.00"> &#160;Exports</text>
<g id="clust1" class="cluster">
<title>cluster_AppModule</title>
<polygon fill="none" stroke="black" stroke-dasharray="1,5" points="8,-70 8,-195 1253,-195 1253,-70 8,-70"/>
</g>
<g id="clust3" class="cluster">
<title>cluster_AppModule_imports</title>
<polygon fill="none" stroke="black" points="16,-78 16,-130 1245,-130 1245,-78 16,-78"/>
</g>
<!-- AiModule -->
<g id="node1" class="node">
<title>AiModule</title>
<polygon fill="#8dd3c7" stroke="black" points="1236.55,-122 1233.55,-126 1212.55,-126 1209.55,-122 1163.45,-122 1163.45,-86 1236.55,-86 1236.55,-122"/>
<text text-anchor="middle" x="1200" y="-99.8" font-family="Times,serif" font-size="14.00">AiModule</text>
</g>
<!-- AppModule -->
<g id="node11" class="node">
<title>AppModule</title>
<polygon fill="#8dd3c7" stroke="black" points="721.66,-187 718.66,-191 697.66,-191 694.66,-187 638.34,-187 638.34,-151 721.66,-151 721.66,-187"/>
<text text-anchor="middle" x="680" y="-164.8" font-family="Times,serif" font-size="14.00">AppModule</text>
</g>
<!-- AiModule&#45;&gt;AppModule -->
<g id="edge1" class="edge">
<title>AiModule&#45;&gt;AppModule</title>
<path fill="none" stroke="black" d="M1200,-122.01C1200,-144.49 1200,-180 1200,-180 1200,-180 731.67,-180 731.67,-180"/>
<polygon fill="black" stroke="black" points="731.67,-176.5 721.67,-180 731.67,-183.5 731.67,-176.5"/>
</g>
<!-- AuthModule -->
<g id="node2" class="node">
<title>AuthModule</title>
<polygon fill="#8dd3c7" stroke="black" points="1144.55,-122 1141.55,-126 1120.55,-126 1117.55,-122 1057.45,-122 1057.45,-86 1144.55,-86 1144.55,-122"/>
<text text-anchor="middle" x="1101" y="-99.8" font-family="Times,serif" font-size="14.00">AuthModule</text>
</g>
<!-- AuthModule&#45;&gt;AppModule -->
<g id="edge2" class="edge">
<title>AuthModule&#45;&gt;AppModule</title>
<path fill="none" stroke="black" d="M1101,-122.13C1101,-142.57 1101,-173 1101,-173 1101,-173 731.91,-173 731.91,-173"/>
<polygon fill="black" stroke="black" points="731.91,-169.5 721.91,-173 731.91,-176.5 731.91,-169.5"/>
</g>
<!-- BillingModule -->
<g id="node3" class="node">
<title>BillingModule</title>
<polygon fill="#8dd3c7" stroke="black" points="1039.45,-122 1036.45,-126 1015.45,-126 1012.45,-122 940.55,-122 940.55,-86 1039.45,-86 1039.45,-122"/>
<text text-anchor="middle" x="990" y="-99.8" font-family="Times,serif" font-size="14.00">BillingModule</text>
</g>
<!-- BillingModule&#45;&gt;AppModule -->
<g id="edge3" class="edge">
<title>BillingModule&#45;&gt;AppModule</title>
<path fill="none" stroke="black" d="M990,-122.27C990,-140.56 990,-166 990,-166 990,-166 731.81,-166 731.81,-166"/>
<polygon fill="black" stroke="black" points="731.81,-162.5 721.81,-166 731.81,-169.5 731.81,-162.5"/>
</g>
<!-- BlocksModule -->
<g id="node4" class="node">
<title>BlocksModule</title>
<polygon fill="#8dd3c7" stroke="black" points="923.44,-122 920.44,-126 899.44,-126 896.44,-122 824.56,-122 824.56,-86 923.44,-86 923.44,-122"/>
<text text-anchor="middle" x="874" y="-99.8" font-family="Times,serif" font-size="14.00">BlocksModule</text>
</g>
<!-- BlocksModule&#45;&gt;AppModule -->
<g id="edge4" class="edge">
<title>BlocksModule&#45;&gt;AppModule</title>
<path fill="none" stroke="black" d="M874,-122.01C874,-138.05 874,-159 874,-159 874,-159 732.1,-159 732.1,-159"/>
<polygon fill="black" stroke="black" points="732.1,-155.5 722.1,-159 732.1,-162.5 732.1,-155.5"/>
</g>
<!-- DashboardModule -->
<g id="node5" class="node">
<title>DashboardModule</title>
<polygon fill="#8dd3c7" stroke="black" points="807.19,-122 804.19,-126 783.19,-126 780.19,-122 686.81,-122 686.81,-86 807.19,-86 807.19,-122"/>
<text text-anchor="middle" x="747" y="-99.8" font-family="Times,serif" font-size="14.00">DashboardModule</text>
</g>
<!-- DashboardModule&#45;&gt;AppModule -->
<g id="edge5" class="edge">
<title>DashboardModule&#45;&gt;AppModule</title>
<path fill="none" stroke="black" d="M704.37,-122.11C704.37,-122.11 704.37,-140.99 704.37,-140.99"/>
<polygon fill="black" stroke="black" points="700.87,-140.99 704.37,-150.99 707.87,-140.99 700.87,-140.99"/>
</g>
<!-- DatabaseModule -->
<g id="node6" class="node">
<title>DatabaseModule</title>
<polygon fill="#8dd3c7" stroke="black" points="668.35,-122 665.35,-126 644.35,-126 641.35,-122 557.65,-122 557.65,-86 668.35,-86 668.35,-122"/>
<text text-anchor="middle" x="613" y="-99.8" font-family="Times,serif" font-size="14.00">DatabaseModule</text>
</g>
<!-- DatabaseModule&#45;&gt;AppModule -->
<g id="edge6" class="edge">
<title>DatabaseModule&#45;&gt;AppModule</title>
<path fill="none" stroke="black" d="M653.3,-122.11C653.3,-122.11 653.3,-140.99 653.3,-140.99"/>
<polygon fill="black" stroke="black" points="649.8,-140.99 653.3,-150.99 656.8,-140.99 649.8,-140.99"/>
</g>
<!-- ExecutionsModule -->
<g id="node7" class="node">
<title>ExecutionsModule</title>
<polygon fill="#8dd3c7" stroke="black" points="539.76,-122 536.76,-126 515.76,-126 512.76,-122 418.24,-122 418.24,-86 539.76,-86 539.76,-122"/>
<text text-anchor="middle" x="479" y="-99.8" font-family="Times,serif" font-size="14.00">ExecutionsModule</text>
</g>
<!-- ExecutionsModule&#45;&gt;AppModule -->
<g id="edge7" class="edge">
<title>ExecutionsModule&#45;&gt;AppModule</title>
<path fill="none" stroke="black" d="M479,-122.01C479,-138.05 479,-159 479,-159 479,-159 627.86,-159 627.86,-159"/>
<polygon fill="black" stroke="black" points="627.86,-162.5 637.86,-159 627.86,-155.5 627.86,-162.5"/>
</g>
<!-- NotificationsModule -->
<g id="node8" class="node">
<title>NotificationsModule</title>
<polygon fill="#8dd3c7" stroke="black" points="400.14,-122 397.14,-126 376.14,-126 373.14,-122 267.86,-122 267.86,-86 400.14,-86 400.14,-122"/>
<text text-anchor="middle" x="334" y="-99.8" font-family="Times,serif" font-size="14.00">NotificationsModule</text>
</g>
<!-- NotificationsModule&#45;&gt;AppModule -->
<g id="edge8" class="edge">
<title>NotificationsModule&#45;&gt;AppModule</title>
<path fill="none" stroke="black" d="M334,-122.27C334,-140.56 334,-166 334,-166 334,-166 628.26,-166 628.26,-166"/>
<polygon fill="black" stroke="black" points="628.26,-169.5 638.26,-166 628.26,-162.5 628.26,-169.5"/>
</g>
<!-- UserModule -->
<g id="node9" class="node">
<title>UserModule</title>
<polygon fill="#8dd3c7" stroke="black" points="249.98,-122 246.98,-126 225.98,-126 222.98,-122 164.02,-122 164.02,-86 249.98,-86 249.98,-122"/>
<text text-anchor="middle" x="207" y="-99.8" font-family="Times,serif" font-size="14.00">UserModule</text>
</g>
<!-- UserModule&#45;&gt;AppModule -->
<g id="edge9" class="edge">
<title>UserModule&#45;&gt;AppModule</title>
<path fill="none" stroke="black" d="M207,-122.13C207,-142.57 207,-173 207,-173 207,-173 628.02,-173 628.02,-173"/>
<polygon fill="black" stroke="black" points="628.02,-176.5 638.02,-173 628.02,-169.5 628.02,-176.5"/>
</g>
<!-- WorkflowsModule -->
<g id="node10" class="node">
<title>WorkflowsModule</title>
<polygon fill="#8dd3c7" stroke="black" points="146.03,-122 143.03,-126 122.03,-126 119.03,-122 23.97,-122 23.97,-86 146.03,-86 146.03,-122"/>
<text text-anchor="middle" x="85" y="-99.8" font-family="Times,serif" font-size="14.00">WorkflowsModule</text>
</g>
<!-- WorkflowsModule&#45;&gt;AppModule -->
<g id="edge10" class="edge">
<title>WorkflowsModule&#45;&gt;AppModule</title>
<path fill="none" stroke="black" d="M85,-122.01C85,-144.49 85,-180 85,-180 85,-180 628.16,-180 628.16,-180"/>
<polygon fill="black" stroke="black" points="628.16,-183.5 638.16,-180 628.16,-176.5 628.16,-183.5"/>
</g>
</g>
</svg>
