<?xml version="1.0" encoding="UTF-8" standalone="no"?>
<!DOCTYPE svg PUBLIC "-//W3C//DTD SVG 1.1//EN"
 "http://www.w3.org/Graphics/SVG/1.1/DTD/svg11.dtd">
<!-- Generated by graphviz version 2.47.0 (20210316.0004)
 -->
<!-- Title: dependencies Pages: 1 -->
<svg width="504pt" height="284pt"
 viewBox="0.00 0.00 504.00 284.00" xmlns="http://www.w3.org/2000/svg" xmlns:xlink="http://www.w3.org/1999/xlink">
<g id="graph0" class="graph" transform="scale(1 1) rotate(0) translate(4 280)">
<title>dependencies</title>
<polygon fill="white" stroke="transparent" points="-4,4 -4,-280 500,-280 500,4 -4,4"/>
<text text-anchor="start" x="227.01" y="-42.4" font-family="Times-12" font-weight="bold" font-size="14.00">Legend</text>
<polygon fill="#ffffb3" stroke="transparent" points="14,-10 14,-30 34,-30 34,-10 14,-10"/>
<text text-anchor="start" x="37.63" y="-15.4" font-family="Times-12" font-size="14.00"> &#160;Declarations</text>
<polygon fill="#8dd3c7" stroke="transparent" points="127,-10 127,-30 147,-30 147,-10 127,-10"/>
<text text-anchor="start" x="150.73" y="-15.4" font-family="Times-12" font-size="14.00"> &#160;Module</text>
<polygon fill="#80b1d3" stroke="transparent" points="213,-10 213,-30 233,-30 233,-10 213,-10"/>
<text text-anchor="start" x="236.78" y="-15.4" font-family="Times-12" font-size="14.00"> &#160;Bootstrap</text>
<polygon fill="#fdb462" stroke="transparent" points="310,-10 310,-30 330,-30 330,-10 310,-10"/>
<text text-anchor="start" x="333.67" y="-15.4" font-family="Times-12" font-size="14.00"> &#160;Providers</text>
<polygon fill="#fb8072" stroke="transparent" points="406,-10 406,-30 426,-30 426,-10 406,-10"/>
<text text-anchor="start" x="429.73" y="-15.4" font-family="Times-12" font-size="14.00"> &#160;Exports</text>
<g id="clust1" class="cluster">
<title>cluster_UserModule</title>
<polygon fill="none" stroke="black" stroke-dasharray="1,5" points="28.5,-70 28.5,-268 467.5,-268 467.5,-70 28.5,-70"/>
</g>
<g id="clust4" class="cluster">
<title>cluster_UserModule_exports</title>
<polygon fill="none" stroke="black" points="130.5,-208 130.5,-260 356.5,-260 356.5,-208 130.5,-208"/>
</g>
<g id="clust6" class="cluster">
<title>cluster_UserModule_providers</title>
<polygon fill="none" stroke="black" points="170.5,-78 170.5,-130 459.5,-130 459.5,-78 170.5,-78"/>
</g>
<g id="clust3" class="cluster">
<title>cluster_UserModule_imports</title>
<polygon fill="none" stroke="black" points="36.5,-78 36.5,-130 162.5,-130 162.5,-78 36.5,-78"/>
</g>
<!-- DatabaseModule -->
<g id="node1" class="node">
<title>DatabaseModule</title>
<polygon fill="#8dd3c7" stroke="black" points="154.85,-122 151.85,-126 130.85,-126 127.85,-122 44.15,-122 44.15,-86 154.85,-86 154.85,-122"/>
<text text-anchor="middle" x="99.5" y="-99.8" font-family="Times,serif" font-size="14.00">DatabaseModule</text>
</g>
<!-- UserModule -->
<g id="node2" class="node">
<title>UserModule</title>
<polygon fill="#8dd3c7" stroke="black" points="290.48,-187 287.48,-191 266.48,-191 263.48,-187 204.52,-187 204.52,-151 290.48,-151 290.48,-187"/>
<text text-anchor="middle" x="247.5" y="-164.8" font-family="Times,serif" font-size="14.00">UserModule</text>
</g>
<!-- DatabaseModule&#45;&gt;UserModule -->
<g id="edge1" class="edge">
<title>DatabaseModule&#45;&gt;UserModule</title>
<path fill="none" stroke="black" d="M146.65,-122.11C146.65,-141.34 146.65,-169 146.65,-169 146.65,-169 194.44,-169 194.44,-169"/>
<polygon fill="black" stroke="black" points="194.44,-172.5 204.44,-169 194.44,-165.5 194.44,-172.5"/>
</g>
<!-- UserService  -->
<g id="node3" class="node">
<title>UserService </title>
<polygon fill="#fb8072" stroke="black" points="348.4,-252 260.6,-252 260.6,-216 348.4,-216 348.4,-252"/>
<text text-anchor="middle" x="304.5" y="-229.8" font-family="Times,serif" font-size="14.00">UserService </text>
</g>
<!-- UserModule&#45;&gt;UserService  -->
<g id="edge2" class="edge">
<title>UserModule&#45;&gt;UserService </title>
<path fill="none" stroke="black" stroke-dasharray="5,2" d="M275.52,-187.11C275.52,-187.11 275.52,-205.99 275.52,-205.99"/>
<polygon fill="black" stroke="black" points="272.02,-205.99 275.52,-215.99 279.02,-205.99 272.02,-205.99"/>
</g>
<!-- WalletsService  -->
<g id="node4" class="node">
<title>WalletsService </title>
<polygon fill="#fb8072" stroke="black" points="242.74,-252 138.26,-252 138.26,-216 242.74,-216 242.74,-252"/>
<text text-anchor="middle" x="190.5" y="-229.8" font-family="Times,serif" font-size="14.00">WalletsService </text>
</g>
<!-- UserModule&#45;&gt;WalletsService  -->
<g id="edge3" class="edge">
<title>UserModule&#45;&gt;WalletsService </title>
<path fill="none" stroke="black" stroke-dasharray="5,2" d="M223.57,-187.11C223.57,-187.11 223.57,-205.99 223.57,-205.99"/>
<polygon fill="black" stroke="black" points="220.07,-205.99 223.57,-215.99 227.07,-205.99 220.07,-205.99"/>
</g>
<!-- UserService -->
<g id="node5" class="node">
<title>UserService</title>
<ellipse fill="#fdb462" stroke="black" cx="393.5" cy="-104" rx="58.44" ry="18"/>
<text text-anchor="middle" x="393.5" y="-99.8" font-family="Times,serif" font-size="14.00">UserService</text>
</g>
<!-- UserService&#45;&gt;UserModule -->
<g id="edge4" class="edge">
<title>UserService&#45;&gt;UserModule</title>
<path fill="none" stroke="black" d="M341.87,-112.5C341.87,-130.12 341.87,-169 341.87,-169 341.87,-169 300.54,-169 300.54,-169"/>
<polygon fill="black" stroke="black" points="300.54,-165.5 290.54,-169 300.54,-172.5 300.54,-165.5"/>
</g>
<!-- WalletsService -->
<g id="node6" class="node">
<title>WalletsService</title>
<ellipse fill="#fdb462" stroke="black" cx="247.5" cy="-104" rx="69.47" ry="18"/>
<text text-anchor="middle" x="247.5" y="-99.8" font-family="Times,serif" font-size="14.00">WalletsService</text>
</g>
<!-- WalletsService&#45;&gt;UserModule -->
<g id="edge5" class="edge">
<title>WalletsService&#45;&gt;UserModule</title>
<path fill="none" stroke="black" d="M247.5,-122.11C247.5,-122.11 247.5,-140.99 247.5,-140.99"/>
<polygon fill="black" stroke="black" points="244,-140.99 247.5,-150.99 251,-140.99 244,-140.99"/>
</g>
</g>
</svg>
