<?xml version="1.0" encoding="UTF-8" standalone="no"?>
<!DOCTYPE svg PUBLIC "-//W3C//DTD SVG 1.1//EN"
 "http://www.w3.org/Graphics/SVG/1.1/DTD/svg11.dtd">
<!-- Generated by graphviz version 2.47.0 (20210316.0004)
 -->
<!-- Title: dependencies Pages: 1 -->
<svg width="504pt" height="284pt"
 viewBox="0.00 0.00 504.00 284.00" xmlns="http://www.w3.org/2000/svg" xmlns:xlink="http://www.w3.org/1999/xlink">
<g id="graph0" class="graph" transform="scale(1 1) rotate(0) translate(4 280)">
<title>dependencies</title>
<polygon fill="white" stroke="transparent" points="-4,4 -4,-280 500,-280 500,4 -4,4"/>
<text text-anchor="start" x="227.01" y="-42.4" font-family="Times-12" font-weight="bold" font-size="14.00">Legend</text>
<polygon fill="#ffffb3" stroke="transparent" points="14,-10 14,-30 34,-30 34,-10 14,-10"/>
<text text-anchor="start" x="37.63" y="-15.4" font-family="Times-12" font-size="14.00"> &#160;Declarations</text>
<polygon fill="#8dd3c7" stroke="transparent" points="127,-10 127,-30 147,-30 147,-10 127,-10"/>
<text text-anchor="start" x="150.73" y="-15.4" font-family="Times-12" font-size="14.00"> &#160;Module</text>
<polygon fill="#80b1d3" stroke="transparent" points="213,-10 213,-30 233,-30 233,-10 213,-10"/>
<text text-anchor="start" x="236.78" y="-15.4" font-family="Times-12" font-size="14.00"> &#160;Bootstrap</text>
<polygon fill="#fdb462" stroke="transparent" points="310,-10 310,-30 330,-30 330,-10 310,-10"/>
<text text-anchor="start" x="333.67" y="-15.4" font-family="Times-12" font-size="14.00"> &#160;Providers</text>
<polygon fill="#fb8072" stroke="transparent" points="406,-10 406,-30 426,-30 426,-10 406,-10"/>
<text text-anchor="start" x="429.73" y="-15.4" font-family="Times-12" font-size="14.00"> &#160;Exports</text>
<g id="clust1" class="cluster">
<title>cluster_BlocksModule</title>
<polygon fill="none" stroke="black" stroke-dasharray="1,5" points="98,-70 98,-268 398,-268 398,-70 98,-70"/>
</g>
<g id="clust3" class="cluster">
<title>cluster_BlocksModule_imports</title>
<polygon fill="none" stroke="black" points="264,-78 264,-130 390,-130 390,-78 264,-78"/>
</g>
<g id="clust4" class="cluster">
<title>cluster_BlocksModule_exports</title>
<polygon fill="none" stroke="black" points="196,-208 196,-260 312,-260 312,-208 196,-208"/>
</g>
<g id="clust6" class="cluster">
<title>cluster_BlocksModule_providers</title>
<polygon fill="none" stroke="black" points="106,-78 106,-130 256,-130 256,-78 106,-78"/>
</g>
<!-- DatabaseModule -->
<g id="node1" class="node">
<title>DatabaseModule</title>
<polygon fill="#8dd3c7" stroke="black" points="382.35,-122 379.35,-126 358.35,-126 355.35,-122 271.65,-122 271.65,-86 382.35,-86 382.35,-122"/>
<text text-anchor="middle" x="327" y="-99.8" font-family="Times,serif" font-size="14.00">DatabaseModule</text>
</g>
<!-- BlocksModule -->
<g id="node2" class="node">
<title>BlocksModule</title>
<polygon fill="#8dd3c7" stroke="black" points="303.44,-187 300.44,-191 279.44,-191 276.44,-187 204.56,-187 204.56,-151 303.44,-151 303.44,-187"/>
<text text-anchor="middle" x="254" y="-164.8" font-family="Times,serif" font-size="14.00">BlocksModule</text>
</g>
<!-- DatabaseModule&#45;&gt;BlocksModule -->
<g id="edge1" class="edge">
<title>DatabaseModule&#45;&gt;BlocksModule</title>
<path fill="none" stroke="black" d="M287.4,-122.11C287.4,-122.11 287.4,-140.99 287.4,-140.99"/>
<polygon fill="black" stroke="black" points="283.9,-140.99 287.4,-150.99 290.9,-140.99 283.9,-140.99"/>
</g>
<!-- BlocksService  -->
<g id="node3" class="node">
<title>BlocksService </title>
<polygon fill="#fb8072" stroke="black" points="304.36,-252 203.64,-252 203.64,-216 304.36,-216 304.36,-252"/>
<text text-anchor="middle" x="254" y="-229.8" font-family="Times,serif" font-size="14.00">BlocksService </text>
</g>
<!-- BlocksModule&#45;&gt;BlocksService  -->
<g id="edge2" class="edge">
<title>BlocksModule&#45;&gt;BlocksService </title>
<path fill="none" stroke="black" stroke-dasharray="5,2" d="M254,-187.11C254,-187.11 254,-205.99 254,-205.99"/>
<polygon fill="black" stroke="black" points="250.5,-205.99 254,-215.99 257.5,-205.99 250.5,-205.99"/>
</g>
<!-- BlocksService -->
<g id="node4" class="node">
<title>BlocksService</title>
<ellipse fill="#fdb462" stroke="black" cx="181" cy="-104" rx="66.63" ry="18"/>
<text text-anchor="middle" x="181" y="-99.8" font-family="Times,serif" font-size="14.00">BlocksService</text>
</g>
<!-- BlocksService&#45;&gt;BlocksModule -->
<g id="edge3" class="edge">
<title>BlocksService&#45;&gt;BlocksModule</title>
<path fill="none" stroke="black" d="M226.3,-117.47C226.3,-117.47 226.3,-140.86 226.3,-140.86"/>
<polygon fill="black" stroke="black" points="222.8,-140.86 226.3,-150.86 229.8,-140.86 222.8,-140.86"/>
</g>
</g>
</svg>
