<?xml version="1.0" encoding="UTF-8" standalone="no"?>
<!DOCTYPE svg PUBLIC "-//W3C//DTD SVG 1.1//EN"
 "http://www.w3.org/Graphics/SVG/1.1/DTD/svg11.dtd">
<!-- Generated by graphviz version 2.47.0 (20210316.0004)
 -->
<!-- Title: dependencies Pages: 1 -->
<svg width="760pt" height="284pt"
 viewBox="0.00 0.00 760.00 284.00" xmlns="http://www.w3.org/2000/svg" xmlns:xlink="http://www.w3.org/1999/xlink">
<g id="graph0" class="graph" transform="scale(1 1) rotate(0) translate(4 280)">
<title>dependencies</title>
<polygon fill="white" stroke="transparent" points="-4,4 -4,-280 756,-280 756,4 -4,4"/>
<text text-anchor="start" x="355.01" y="-42.4" font-family="Times-12" font-weight="bold" font-size="14.00">Legend</text>
<polygon fill="#ffffb3" stroke="transparent" points="142,-10 142,-30 162,-30 162,-10 142,-10"/>
<text text-anchor="start" x="165.63" y="-15.4" font-family="Times-12" font-size="14.00"> &#160;Declarations</text>
<polygon fill="#8dd3c7" stroke="transparent" points="255,-10 255,-30 275,-30 275,-10 255,-10"/>
<text text-anchor="start" x="278.73" y="-15.4" font-family="Times-12" font-size="14.00"> &#160;Module</text>
<polygon fill="#80b1d3" stroke="transparent" points="341,-10 341,-30 361,-30 361,-10 341,-10"/>
<text text-anchor="start" x="364.78" y="-15.4" font-family="Times-12" font-size="14.00"> &#160;Bootstrap</text>
<polygon fill="#fdb462" stroke="transparent" points="438,-10 438,-30 458,-30 458,-10 438,-10"/>
<text text-anchor="start" x="461.67" y="-15.4" font-family="Times-12" font-size="14.00"> &#160;Providers</text>
<polygon fill="#fb8072" stroke="transparent" points="534,-10 534,-30 554,-30 554,-10 534,-10"/>
<text text-anchor="start" x="557.73" y="-15.4" font-family="Times-12" font-size="14.00"> &#160;Exports</text>
<g id="clust1" class="cluster">
<title>cluster_ExecutionsModule</title>
<polygon fill="none" stroke="black" stroke-dasharray="1,5" points="8,-70 8,-268 744,-268 744,-70 8,-70"/>
</g>
<g id="clust3" class="cluster">
<title>cluster_ExecutionsModule_imports</title>
<polygon fill="none" stroke="black" points="610,-78 610,-130 736,-130 736,-78 610,-78"/>
</g>
<g id="clust4" class="cluster">
<title>cluster_ExecutionsModule_exports</title>
<polygon fill="none" stroke="black" points="184,-208 184,-260 634,-260 634,-208 184,-208"/>
</g>
<g id="clust6" class="cluster">
<title>cluster_ExecutionsModule_providers</title>
<polygon fill="none" stroke="black" points="16,-78 16,-130 602,-130 602,-78 16,-78"/>
</g>
<!-- DatabaseModule -->
<g id="node1" class="node">
<title>DatabaseModule</title>
<polygon fill="#8dd3c7" stroke="black" points="728.35,-122 725.35,-126 704.35,-126 701.35,-122 617.65,-122 617.65,-86 728.35,-86 728.35,-122"/>
<text text-anchor="middle" x="673" y="-99.8" font-family="Times,serif" font-size="14.00">DatabaseModule</text>
</g>
<!-- ExecutionsModule -->
<g id="node2" class="node">
<title>ExecutionsModule</title>
<polygon fill="#8dd3c7" stroke="black" points="467.76,-187 464.76,-191 443.76,-191 440.76,-187 346.24,-187 346.24,-151 467.76,-151 467.76,-187"/>
<text text-anchor="middle" x="407" y="-164.8" font-family="Times,serif" font-size="14.00">ExecutionsModule</text>
</g>
<!-- DatabaseModule&#45;&gt;ExecutionsModule -->
<g id="edge1" class="edge">
<title>DatabaseModule&#45;&gt;ExecutionsModule</title>
<path fill="none" stroke="black" d="M621.71,-122.02C621.71,-139.37 621.71,-163 621.71,-163 621.71,-163 477.95,-163 477.95,-163"/>
<polygon fill="black" stroke="black" points="477.95,-159.5 467.95,-163 477.95,-166.5 477.95,-159.5"/>
</g>
<!-- ExecutionsService  -->
<g id="node3" class="node">
<title>ExecutionsService </title>
<polygon fill="#fb8072" stroke="black" points="625.69,-252 502.31,-252 502.31,-216 625.69,-216 625.69,-252"/>
<text text-anchor="middle" x="564" y="-229.8" font-family="Times,serif" font-size="14.00">ExecutionsService </text>
</g>
<!-- ExecutionsModule&#45;&gt;ExecutionsService  -->
<g id="edge2" class="edge">
<title>ExecutionsModule&#45;&gt;ExecutionsService </title>
<path fill="none" stroke="black" stroke-dasharray="5,2" d="M468.04,-175C506.15,-175 548.03,-175 548.03,-175 548.03,-175 548.03,-205.98 548.03,-205.98"/>
<polygon fill="black" stroke="black" points="544.53,-205.98 548.03,-215.98 551.53,-205.98 544.53,-205.98"/>
</g>
<!-- NodeExecutionsService  -->
<g id="node4" class="node">
<title>NodeExecutionsService </title>
<polygon fill="#fb8072" stroke="black" points="484.01,-252 329.99,-252 329.99,-216 484.01,-216 484.01,-252"/>
<text text-anchor="middle" x="407" y="-229.8" font-family="Times,serif" font-size="14.00">NodeExecutionsService </text>
</g>
<!-- ExecutionsModule&#45;&gt;NodeExecutionsService  -->
<g id="edge3" class="edge">
<title>ExecutionsModule&#45;&gt;NodeExecutionsService </title>
<path fill="none" stroke="black" stroke-dasharray="5,2" d="M407,-187.11C407,-187.11 407,-205.99 407,-205.99"/>
<polygon fill="black" stroke="black" points="403.5,-205.99 407,-215.99 410.5,-205.99 403.5,-205.99"/>
</g>
<!-- NodeLogsService  -->
<g id="node5" class="node">
<title>NodeLogsService </title>
<polygon fill="#fb8072" stroke="black" points="311.8,-252 192.2,-252 192.2,-216 311.8,-216 311.8,-252"/>
<text text-anchor="middle" x="252" y="-229.8" font-family="Times,serif" font-size="14.00">NodeLogsService </text>
</g>
<!-- ExecutionsModule&#45;&gt;NodeLogsService  -->
<g id="edge4" class="edge">
<title>ExecutionsModule&#45;&gt;NodeLogsService </title>
<path fill="none" stroke="black" stroke-dasharray="5,2" d="M346.01,-175C304.49,-175 257.04,-175 257.04,-175 257.04,-175 257.04,-205.98 257.04,-205.98"/>
<polygon fill="black" stroke="black" points="253.54,-205.98 257.04,-215.98 260.54,-205.98 253.54,-205.98"/>
</g>
<!-- ExecutionsService -->
<g id="node6" class="node">
<title>ExecutionsService</title>
<ellipse fill="#fdb462" stroke="black" cx="511" cy="-104" rx="82.8" ry="18"/>
<text text-anchor="middle" x="511" y="-99.8" font-family="Times,serif" font-size="14.00">ExecutionsService</text>
</g>
<!-- ExecutionsService&#45;&gt;ExecutionsModule -->
<g id="edge5" class="edge">
<title>ExecutionsService&#45;&gt;ExecutionsModule</title>
<path fill="none" stroke="black" d="M447.99,-115.92C447.99,-115.92 447.99,-140.77 447.99,-140.77"/>
<polygon fill="black" stroke="black" points="444.49,-140.77 447.99,-150.77 451.49,-140.77 444.49,-140.77"/>
</g>
<!-- NodeExecutionsService -->
<g id="node7" class="node">
<title>NodeExecutionsService</title>
<ellipse fill="#fdb462" stroke="black" cx="306" cy="-104" rx="103.63" ry="18"/>
<text text-anchor="middle" x="306" y="-99.8" font-family="Times,serif" font-size="14.00">NodeExecutionsService</text>
</g>
<!-- NodeExecutionsService&#45;&gt;ExecutionsModule -->
<g id="edge6" class="edge">
<title>NodeExecutionsService&#45;&gt;ExecutionsModule</title>
<path fill="none" stroke="black" d="M377.97,-117.15C377.97,-117.15 377.97,-140.69 377.97,-140.69"/>
<polygon fill="black" stroke="black" points="374.47,-140.69 377.97,-150.69 381.47,-140.69 374.47,-140.69"/>
</g>
<!-- NodeLogsService -->
<g id="node8" class="node">
<title>NodeLogsService</title>
<ellipse fill="#fdb462" stroke="black" cx="104" cy="-104" rx="80.44" ry="18"/>
<text text-anchor="middle" x="104" y="-99.8" font-family="Times,serif" font-size="14.00">NodeLogsService</text>
</g>
<!-- NodeLogsService&#45;&gt;ExecutionsModule -->
<g id="edge7" class="edge">
<title>NodeLogsService&#45;&gt;ExecutionsModule</title>
<path fill="none" stroke="black" d="M104,-122.02C104,-139.37 104,-163 104,-163 104,-163 336.05,-163 336.05,-163"/>
<polygon fill="black" stroke="black" points="336.05,-166.5 346.05,-163 336.05,-159.5 336.05,-166.5"/>
</g>
</g>
</svg>
