<svg width="32" height="32" viewBox="0 0 32 32" fill="none" xmlns="http://www.w3.org/2000/svg">
  <defs>
    <!-- Enhanced gradient definitions -->
    <linearGradient id="primaryGradient" x1="0%" y1="0%" x2="100%" y2="100%">
      <stop offset="0%" style="stop-color:#4f46e5;stop-opacity:1" />
      <stop offset="30%" style="stop-color:#6366f1;stop-opacity:1" />
      <stop offset="70%" style="stop-color:#8b5cf6;stop-opacity:1" />
      <stop offset="100%" style="stop-color:#a855f7;stop-opacity:1" />
    </linearGradient>
    
    <linearGradient id="accentGradient" x1="0%" y1="0%" x2="100%" y2="100%">
      <stop offset="0%" style="stop-color:#f59e0b;stop-opacity:1" />
      <stop offset="50%" style="stop-color:#f97316;stop-opacity:1" />
      <stop offset="100%" style="stop-color:#ea580c;stop-opacity:1" />
    </linearGradient>
    
    <linearGradient id="nodeGradient" x1="0%" y1="0%" x2="100%" y2="100%">
      <stop offset="0%" style="stop-color:#3b82f6;stop-opacity:1" />
      <stop offset="100%" style="stop-color:#6366f1;stop-opacity:1" />
    </linearGradient>
    
    <!-- Enhanced glow filter -->
    <filter id="glow" x="-50%" y="-50%" width="200%" height="200%">
      <feGaussianBlur stdDeviation="1.5" result="coloredBlur"/>
      <feMerge> 
        <feMergeNode in="coloredBlur"/>
        <feMergeNode in="SourceGraphic"/>
      </feMerge>
    </filter>
    
    <!-- Drop shadow filter -->
    <filter id="shadow" x="-50%" y="-50%" width="200%" height="200%">
      <feDropShadow dx="0" dy="1" stdDeviation="2" flood-color="#000000" flood-opacity="0.15"/>
    </filter>
  </defs>
  
  <!-- Background circle with enhanced styling -->
  <circle cx="16" cy="16" r="15" fill="url(#primaryGradient)" opacity="0.15"/>
  
  <!-- Enhanced connected nodes representing workflow automation -->
  <g filter="url(#shadow)">
    <!-- Node 1 (API/Service) with enhanced styling -->
    <circle cx="8" cy="16" r="3.5" fill="url(#nodeGradient)" stroke="url(#accentGradient)" stroke-width="1.2"/>
    <circle cx="8" cy="16" r="2" fill="white" opacity="0.9"/>
    <circle cx="8" cy="16" r="0.8" fill="url(#accentGradient)" opacity="0.7"/>
    
    <!-- Node 2 (Database) -->
    <circle cx="16" cy="10" r="3.5" fill="url(#nodeGradient)" stroke="url(#accentGradient)" stroke-width="1.2"/>
    <circle cx="16" cy="10" r="2" fill="white" opacity="0.9"/>
    <circle cx="16" cy="10" r="0.8" fill="url(#accentGradient)" opacity="0.7"/>
    
    <!-- Node 3 (Blockchain) - highlighted and enhanced -->
    <circle cx="16" cy="22" r="4" fill="url(#accentGradient)" stroke="url(#primaryGradient)" stroke-width="1.5"/>
    <circle cx="16" cy="22" r="2.5" fill="white" opacity="0.9"/>
    <circle cx="16" cy="22" r="1.2" fill="url(#primaryGradient)" opacity="0.8"/>
    
    <!-- Node 4 (Email/Notification) -->
    <circle cx="24" cy="16" r="3.5" fill="url(#nodeGradient)" stroke="url(#accentGradient)" stroke-width="1.2"/>
    <circle cx="24" cy="16" r="2" fill="white" opacity="0.9"/>
    <circle cx="24" cy="16" r="0.8" fill="url(#accentGradient)" opacity="0.7"/>
    
    <!-- Enhanced connection lines with better curves -->
    <path d="M11.5 16 Q13.5 16 13 10" stroke="url(#primaryGradient)" stroke-width="2" fill="none" opacity="0.9" stroke-linecap="round"/>
    <path d="M11.5 16 Q13.5 16 13 22" stroke="url(#primaryGradient)" stroke-width="2" fill="none" opacity="0.9" stroke-linecap="round"/>
    <path d="M19 10 Q21 10 21 16" stroke="url(#primaryGradient)" stroke-width="2" fill="none" opacity="0.9" stroke-linecap="round"/>
    <path d="M19 22 Q21 22 21 16" stroke="url(#primaryGradient)" stroke-width="2" fill="none" opacity="0.9" stroke-linecap="round"/>
    
    <!-- Enhanced animated flow dots -->
    <circle cx="12" cy="13" r="1" fill="url(#accentGradient)" opacity="0.8">
      <animate attributeName="opacity" values="0.8;1;0.8" dur="1.5s" repeatCount="indefinite"/>
      <animate attributeName="r" values="1;1.3;1" dur="1.5s" repeatCount="indefinite"/>
    </circle>
    <circle cx="20" cy="13" r="1" fill="url(#accentGradient)" opacity="0.8">
      <animate attributeName="opacity" values="0.8;1;0.8" dur="1.5s" repeatCount="indefinite" begin="0.75s"/>
      <animate attributeName="r" values="1;1.3;1" dur="1.5s" repeatCount="indefinite" begin="0.75s"/>
    </circle>
  </g>
  
  <!-- Enhanced blockchain pattern -->
  <g opacity="0.3">
    <rect x="4" y="4" width="2.5" height="2.5" rx="0.6" fill="url(#accentGradient)" opacity="0.7"/>
    <rect x="7" y="4" width="2.5" height="2.5" rx="0.6" fill="url(#accentGradient)" opacity="0.7"/>
    <rect x="10" y="4" width="2.5" height="2.5" rx="0.6" fill="url(#accentGradient)" opacity="0.7"/>
    <rect x="13" y="4" width="2.5" height="2.5" rx="0.6" fill="url(#accentGradient)" opacity="0.7"/>
    
    <rect x="4" y="25.5" width="2.5" height="2.5" rx="0.6" fill="url(#accentGradient)" opacity="0.7"/>
    <rect x="7" y="25.5" width="2.5" height="2.5" rx="0.6" fill="url(#accentGradient)" opacity="0.7"/>
    <rect x="10" y="25.5" width="2.5" height="2.5" rx="0.6" fill="url(#accentGradient)" opacity="0.7"/>
    <rect x="13" y="25.5" width="2.5" height="2.5" rx="0.6" fill="url(#accentGradient)" opacity="0.7"/>
  </g>
</svg> 