<?xml version="1.0" encoding="UTF-8" standalone="no"?>
<!DOCTYPE svg PUBLIC "-//W3C//DTD SVG 1.1//EN"
 "http://www.w3.org/Graphics/SVG/1.1/DTD/svg11.dtd">
<!-- Generated by graphviz version 2.47.0 (20210316.0004)
 -->
<!-- Title: dependencies Pages: 1 -->
<svg width="896pt" height="284pt"
 viewBox="0.00 0.00 896.00 284.00" xmlns="http://www.w3.org/2000/svg" xmlns:xlink="http://www.w3.org/1999/xlink">
<g id="graph0" class="graph" transform="scale(1 1) rotate(0) translate(4 280)">
<title>dependencies</title>
<polygon fill="white" stroke="transparent" points="-4,4 -4,-280 892,-280 892,4 -4,4"/>
<text text-anchor="start" x="423.01" y="-42.4" font-family="Times-12" font-weight="bold" font-size="14.00">Legend</text>
<polygon fill="#ffffb3" stroke="transparent" points="210,-10 210,-30 230,-30 230,-10 210,-10"/>
<text text-anchor="start" x="233.63" y="-15.4" font-family="Times-12" font-size="14.00"> &#160;Declarations</text>
<polygon fill="#8dd3c7" stroke="transparent" points="323,-10 323,-30 343,-30 343,-10 323,-10"/>
<text text-anchor="start" x="346.73" y="-15.4" font-family="Times-12" font-size="14.00"> &#160;Module</text>
<polygon fill="#80b1d3" stroke="transparent" points="409,-10 409,-30 429,-30 429,-10 409,-10"/>
<text text-anchor="start" x="432.78" y="-15.4" font-family="Times-12" font-size="14.00"> &#160;Bootstrap</text>
<polygon fill="#fdb462" stroke="transparent" points="506,-10 506,-30 526,-30 526,-10 506,-10"/>
<text text-anchor="start" x="529.67" y="-15.4" font-family="Times-12" font-size="14.00"> &#160;Providers</text>
<polygon fill="#fb8072" stroke="transparent" points="602,-10 602,-30 622,-30 622,-10 602,-10"/>
<text text-anchor="start" x="625.73" y="-15.4" font-family="Times-12" font-size="14.00"> &#160;Exports</text>
<g id="clust1" class="cluster">
<title>cluster_DatabaseModule</title>
<polygon fill="none" stroke="black" stroke-dasharray="1,5" points="8,-70 8,-268 880,-268 880,-70 8,-70"/>
</g>
<g id="clust6" class="cluster">
<title>cluster_DatabaseModule_providers</title>
<polygon fill="none" stroke="black" points="102,-78 102,-130 820,-130 820,-78 102,-78"/>
</g>
<g id="clust4" class="cluster">
<title>cluster_DatabaseModule_exports</title>
<polygon fill="none" stroke="black" points="16,-208 16,-260 872,-260 872,-208 16,-208"/>
</g>
<!-- ExecutionRepository  -->
<g id="node1" class="node">
<title>ExecutionRepository </title>
<polygon fill="#fb8072" stroke="black" points="863.7,-252 726.3,-252 726.3,-216 863.7,-216 863.7,-252"/>
<text text-anchor="middle" x="795" y="-229.8" font-family="Times,serif" font-size="14.00">ExecutionRepository </text>
</g>
<!-- NotificationRepository  -->
<g id="node2" class="node">
<title>NotificationRepository </title>
<polygon fill="#fb8072" stroke="black" points="708.09,-252 559.91,-252 559.91,-216 708.09,-216 708.09,-252"/>
<text text-anchor="middle" x="634" y="-229.8" font-family="Times,serif" font-size="14.00">NotificationRepository </text>
</g>
<!-- PrismaService  -->
<g id="node3" class="node">
<title>PrismaService </title>
<polygon fill="#fb8072" stroke="black" points="542.36,-252 441.64,-252 441.64,-216 542.36,-216 542.36,-252"/>
<text text-anchor="middle" x="492" y="-229.8" font-family="Times,serif" font-size="14.00">PrismaService </text>
</g>
<!-- UserRepository  -->
<g id="node4" class="node">
<title>UserRepository </title>
<polygon fill="#fb8072" stroke="black" points="423.86,-252 316.14,-252 316.14,-216 423.86,-216 423.86,-252"/>
<text text-anchor="middle" x="370" y="-229.8" font-family="Times,serif" font-size="14.00">UserRepository </text>
</g>
<!-- WalletRepository  -->
<g id="node5" class="node">
<title>WalletRepository </title>
<polygon fill="#fb8072" stroke="black" points="298.25,-252 179.75,-252 179.75,-216 298.25,-216 298.25,-252"/>
<text text-anchor="middle" x="239" y="-229.8" font-family="Times,serif" font-size="14.00">WalletRepository </text>
</g>
<!-- WorkflowRepository  -->
<g id="node6" class="node">
<title>WorkflowRepository </title>
<polygon fill="#fb8072" stroke="black" points="162.47,-252 23.53,-252 23.53,-216 162.47,-216 162.47,-252"/>
<text text-anchor="middle" x="93" y="-229.8" font-family="Times,serif" font-size="14.00">WorkflowRepository </text>
</g>
<!-- DatabaseModule -->
<g id="node7" class="node">
<title>DatabaseModule</title>
<polygon fill="#8dd3c7" stroke="black" points="476.35,-187 473.35,-191 452.35,-191 449.35,-187 365.65,-187 365.65,-151 476.35,-151 476.35,-187"/>
<text text-anchor="middle" x="421" y="-164.8" font-family="Times,serif" font-size="14.00">DatabaseModule</text>
</g>
<!-- DatabaseModule&#45;&gt;ExecutionRepository  -->
<g id="edge1" class="edge">
<title>DatabaseModule&#45;&gt;ExecutionRepository </title>
<path fill="none" stroke="black" stroke-dasharray="5,2" d="M476.5,-169C574.71,-169 768.86,-169 768.86,-169 768.86,-169 768.86,-205.89 768.86,-205.89"/>
<polygon fill="black" stroke="black" points="765.36,-205.89 768.86,-215.89 772.36,-205.89 765.36,-205.89"/>
</g>
<!-- DatabaseModule&#45;&gt;NotificationRepository  -->
<g id="edge2" class="edge">
<title>DatabaseModule&#45;&gt;NotificationRepository </title>
<path fill="none" stroke="black" stroke-dasharray="5,2" d="M476.73,-178C524.02,-178 584.26,-178 584.26,-178 584.26,-178 584.26,-205.97 584.26,-205.97"/>
<polygon fill="black" stroke="black" points="580.76,-205.97 584.26,-215.97 587.76,-205.97 580.76,-205.97"/>
</g>
<!-- DatabaseModule&#45;&gt;PrismaService  -->
<g id="edge3" class="edge">
<title>DatabaseModule&#45;&gt;PrismaService </title>
<path fill="none" stroke="black" stroke-dasharray="5,2" d="M459.12,-187.11C459.12,-187.11 459.12,-205.99 459.12,-205.99"/>
<polygon fill="black" stroke="black" points="455.62,-205.99 459.12,-215.99 462.62,-205.99 455.62,-205.99"/>
</g>
<!-- DatabaseModule&#45;&gt;UserRepository  -->
<g id="edge4" class="edge">
<title>DatabaseModule&#45;&gt;UserRepository </title>
<path fill="none" stroke="black" stroke-dasharray="5,2" d="M394.63,-187.11C394.63,-187.11 394.63,-205.99 394.63,-205.99"/>
<polygon fill="black" stroke="black" points="391.13,-205.99 394.63,-215.99 398.13,-205.99 391.13,-205.99"/>
</g>
<!-- DatabaseModule&#45;&gt;WalletRepository  -->
<g id="edge5" class="edge">
<title>DatabaseModule&#45;&gt;WalletRepository </title>
<path fill="none" stroke="black" stroke-dasharray="5,2" d="M365.6,-178C318.12,-178 257.36,-178 257.36,-178 257.36,-178 257.36,-205.97 257.36,-205.97"/>
<polygon fill="black" stroke="black" points="253.86,-205.97 257.36,-215.97 260.86,-205.97 253.86,-205.97"/>
</g>
<!-- DatabaseModule&#45;&gt;WorkflowRepository  -->
<g id="edge6" class="edge">
<title>DatabaseModule&#45;&gt;WorkflowRepository </title>
<path fill="none" stroke="black" stroke-dasharray="5,2" d="M365.39,-169C282.47,-169 136.07,-169 136.07,-169 136.07,-169 136.07,-205.89 136.07,-205.89"/>
<polygon fill="black" stroke="black" points="132.57,-205.89 136.07,-215.89 139.57,-205.89 132.57,-205.89"/>
</g>
<!-- ExecutionRepository -->
<g id="node8" class="node">
<title>ExecutionRepository</title>
<ellipse fill="#fdb462" stroke="black" cx="719" cy="-104" rx="92.64" ry="18"/>
<text text-anchor="middle" x="719" y="-99.8" font-family="Times,serif" font-size="14.00">ExecutionRepository</text>
</g>
<!-- ExecutionRepository&#45;&gt;DatabaseModule -->
<g id="edge7" class="edge">
<title>ExecutionRepository&#45;&gt;DatabaseModule</title>
<path fill="none" stroke="black" d="M667.36,-119.01C667.36,-135.59 667.36,-160 667.36,-160 667.36,-160 486.6,-160 486.6,-160"/>
<polygon fill="black" stroke="black" points="486.6,-156.5 476.6,-160 486.6,-163.5 486.6,-156.5"/>
</g>
<!-- PrismaService -->
<g id="node9" class="node">
<title>PrismaService</title>
<ellipse fill="#fdb462" stroke="black" cx="542" cy="-104" rx="66.63" ry="18"/>
<text text-anchor="middle" x="542" y="-99.8" font-family="Times,serif" font-size="14.00">PrismaService</text>
</g>
<!-- PrismaService&#45;&gt;DatabaseModule -->
<g id="edge8" class="edge">
<title>PrismaService&#45;&gt;DatabaseModule</title>
<path fill="none" stroke="black" d="M475.09,-104C469.78,-104 466.42,-104 466.42,-104 466.42,-104 466.42,-140.89 466.42,-140.89"/>
<polygon fill="black" stroke="black" points="462.92,-140.89 466.42,-150.89 469.92,-140.89 462.92,-140.89"/>
</g>
<!-- UserRepository -->
<g id="node10" class="node">
<title>UserRepository</title>
<ellipse fill="#fdb462" stroke="black" cx="386" cy="-104" rx="71.79" ry="18"/>
<text text-anchor="middle" x="386" y="-99.8" font-family="Times,serif" font-size="14.00">UserRepository</text>
</g>
<!-- UserRepository&#45;&gt;DatabaseModule -->
<g id="edge9" class="edge">
<title>UserRepository&#45;&gt;DatabaseModule</title>
<path fill="none" stroke="black" d="M411.61,-121.08C411.61,-121.08 411.61,-140.9 411.61,-140.9"/>
<polygon fill="black" stroke="black" points="408.11,-140.9 411.61,-150.9 415.11,-140.9 408.11,-140.9"/>
</g>
<!-- WorkflowRepository -->
<g id="node11" class="node">
<title>WorkflowRepository</title>
<ellipse fill="#fdb462" stroke="black" cx="203" cy="-104" rx="93.2" ry="18"/>
<text text-anchor="middle" x="203" y="-99.8" font-family="Times,serif" font-size="14.00">WorkflowRepository</text>
</g>
<!-- WorkflowRepository&#45;&gt;DatabaseModule -->
<g id="edge10" class="edge">
<title>WorkflowRepository&#45;&gt;DatabaseModule</title>
<path fill="none" stroke="black" d="M218.62,-122.03C218.62,-138.4 218.62,-160 218.62,-160 218.62,-160 355.43,-160 355.43,-160"/>
<polygon fill="black" stroke="black" points="355.43,-163.5 365.43,-160 355.43,-156.5 355.43,-163.5"/>
</g>
</g>
</svg>
